<svg xmlns:x="http://ns.adobe.com/Extensibility/1.0/" xmlns:i="http://ns.adobe.com/AdobeIllustrator/10.0/" xmlns:graph="http://ns.adobe.com/Graphs/1.0/" xmlns="http://www.w3.org/2000/svg" xmlns:xlink="http://www.w3.org/1999/xlink" version="1.1" id="Calque_1" x="0px" y="0px" width="100px" height="100px" viewBox="0 0 100 100" enable-background="new 0 0 100 100" xml:space="preserve">
<metadata>
	<sfw xmlns="http://ns.adobe.com/SaveForWeb/1.0/">
		<slices/>
		<sliceSourceBounds height="67.876" width="99.891" y="262.485" x="370.609" bottomLeftOrigin="true"/>
	</sfw>
</metadata>
<g>
	<path fill="#ffd700" d="M98.717,17.389c-0.787-0.397-1.729-0.316-2.438,0.207l-11.612,8.582c-0.012-0.011-0.02-0.024-0.032-0.035   l-9.343-8.18c-0.917-0.803-2.298-0.765-3.169,0.087l-9.154,8.941l-11.437-9.327c-0.859-0.7-2.092-0.7-2.951,0l-11.614,9.471   l-9.302-9.085c-0.872-0.852-2.252-0.889-3.169-0.087l-9.231,8.082L3.832,17.596c-0.709-0.524-1.652-0.604-2.439-0.207   c-0.786,0.397-1.283,1.203-1.283,2.084v53.584c0,4.022,5.026,6.911,15.817,9.093c9.14,1.848,21.26,2.865,34.129,2.865   c12.868,0,24.987-1.018,34.128-2.865C94.975,79.969,100,77.08,100,73.058V19.474C100,18.592,99.504,17.786,98.717,17.389z    M84.184,63.967c-9.141-1.848-21.26-2.865-34.128-2.865c-12.869,0-24.989,1.018-34.129,2.865   c-4.868,0.982-8.559,2.111-11.148,3.423v-3.636c0.141-0.248,1.8-2.647,13.222-4.803c8.705-1.643,20.089-2.547,32.055-2.547   c11.965,0,23.349,0.904,32.054,2.547c11.421,2.155,13.081,4.555,13.222,4.803v3.395c-0.447-0.34-1.001-0.513-1.564-0.475   C91.323,65.662,88.143,64.766,84.184,63.967z M86.035,69.154c-8.696,2.092-21.954,3.387-35.979,3.387   c-14,0-27.216-1.269-35.982-3.387c1.161-0.279,2.461-0.56,3.927-0.836c8.705-1.643,20.088-2.548,32.055-2.548   c11.965,0,23.349,0.905,32.054,2.548C83.575,68.595,84.874,68.875,86.035,69.154z M73.84,22.898l6.986,6.117l-8.066,5.962   l-6.149-5.016L73.84,22.898z M25.946,22.898l7.378,7.207l-5.974,4.872l-8.243-6.091L25.946,22.898z M26.033,39.809   c0.858,0.634,2.036,0.606,2.863-0.068l21.16-17.255l21.158,17.255c0.827,0.674,2.006,0.702,2.863,0.068l21.254-15.708v33.922   c-2.59-1.312-6.279-2.439-11.147-3.424c-9.141-1.847-21.26-2.864-34.128-2.864c-12.869,0-24.989,1.018-34.129,2.864   c-4.868,0.984-8.559,2.112-11.148,3.424V24.102L26.033,39.809z M82.109,77.799c-8.704,1.643-20.089,2.547-32.054,2.547   c-11.967,0-23.351-0.904-32.056-2.547C7.22,75.764,5.136,73.512,4.818,73.058c0.149-0.212,0.684-0.816,2.308-1.606   c0.274,0.406,0.672,0.733,1.171,0.904c8.903,3.039,24.514,4.855,41.759,4.855c18.394,0,35.106-2.134,43.458-5.488   c1.213,0.656,1.646,1.147,1.778,1.335C94.973,73.512,92.89,75.764,82.109,77.799z"/>
	<path fill="#ffdf00" d="M50.054,48.062c1.443,0,2.798-0.562,3.818-1.581c2.104-2.105,2.104-5.53,0-7.635   c-1.019-1.02-2.374-1.581-3.816-1.581s-2.799,0.562-3.818,1.581c-1.02,1.02-1.582,2.376-1.582,3.818   c0.001,1.441,0.562,2.797,1.582,3.817C47.257,47.501,48.612,48.062,50.054,48.062z M48.878,41.487   C49.193,41.173,49.611,41,50.056,41c0.444,0,0.861,0.173,1.176,0.487c0.648,0.649,0.648,1.705,0,2.353   c-0.629,0.628-1.725,0.628-2.353,0c-0.314-0.314-0.487-0.732-0.487-1.176C48.391,42.219,48.564,41.802,48.878,41.487z"/>
	<path fill="#ffdf00" d="M13.216,52.281c1.442,0,2.798-0.562,3.817-1.582s1.581-2.375,1.581-3.817c0-1.442-0.562-2.797-1.581-3.817   c-1.019-1.02-2.375-1.582-3.817-1.582c-1.442,0-2.798,0.562-3.817,1.582c-1.02,1.02-1.582,2.375-1.582,3.817   c0,1.442,0.562,2.797,1.582,3.817C10.418,51.719,11.774,52.281,13.216,52.281z M12.04,45.706c0.314-0.313,0.732-0.487,1.176-0.487   c0.444,0,0.862,0.173,1.176,0.488c0.314,0.314,0.487,0.731,0.487,1.175c0,0.444-0.173,0.862-0.487,1.177   c-0.628,0.628-1.724,0.628-2.352,0c-0.314-0.314-0.487-0.732-0.487-1.176S11.726,46.021,12.04,45.706z"/>
	<path fill="#ffdf00" d="M86.062,52.281c1.442,0,2.798-0.562,3.818-1.582c2.104-2.104,2.104-5.53,0-7.634   c-1.021-1.02-2.376-1.582-3.818-1.582c-1.441,0-2.797,0.562-3.816,1.582c-2.104,2.104-2.104,5.53,0,7.635   C83.266,51.719,84.621,52.281,86.062,52.281z M84.887,45.707c0.314-0.314,0.732-0.488,1.176-0.488c0.445,0,0.862,0.173,1.177,0.487   c0.649,0.649,0.649,1.705,0,2.353c-0.628,0.628-1.725,0.629-2.353,0C84.238,47.41,84.238,46.354,84.887,45.707z"/>
</g>
</svg>
