<svg width="352" height="84" xmlns="http://www.w3.org/2000/svg">
 <style type="text/css">.st0{fill:#00ADEF;}
	.st1{fill:#EF9235;}
	.st2{fill:none;stroke:#EF9235;stroke-width:5;stroke-miterlimit:10;}
	.st3{fill:#FFFFFF;stroke:#FFFFFF;stroke-miterlimit:10;}</style>

 <g>
  <title>background</title>
  <rect fill="none" id="canvas_background" height="86" width="354" y="-1" x="-1"/>
 </g>
 <g>
  <title>Layer 1</title>
  <path d="m335.2,61.399979l-23.2,0c0,0 0,0.2 0,0c0,0.2 0,0 0,1l23.4,0c0,-1 -0.1,-0.8 -0.2,-1zm-2.7,-1l-20.6,0c0,0 0,-0.1 0,0l20.7,0c0,-0.2 -0.1,0 -0.1,0zm-28.7,1c0.6,-1 1.3,-3.4 1.9,-5.2c-0.6,1.8 -1.2,4.2 -1.9,5.2l0,0zm-62.9,-12c0,-0.1 0,-0.3 0,-0.4c0,0.1 0,0.2 0,0.3l0,0.1zm-1.9,-26.4c0,6.4 0.4,12.9 0.2,19.3c-0.1,3.4 -0.3,6.9 -1.1,10.1c-1.2,5 -4.5,7.8 -9,8.1c4.5,-0.3 7.9,-3.1 9.2,-8.1c0.8,-3.3 1.4,-6.7 1.5,-10.1c0.2,-6.4 0.3,-12.9 0.3,-19.3l0,-1.6l-1,0l0,1.6l-0.1,0zm-14.4,39.2c-0.6,-0.2 -1.3,-0.4 -1.8,-0.7c0.5,0.3 1.2,0.5 1.8,0.7c4.6,1.3 8.7,0.4 11.6,-2.5c-2.9,2.9 -7,3.9 -11.6,2.5zm-68.6,0.4c1,0 0.8,0 1,0l0,-40.2l-1,0l0,40.2zm-86,-0.2l0,1l23.8,0c-0.1,-1 -0.1,-0.8 -0.2,-1l-23.6,0zm21,-2c-1.4,-3.4 -2.7,-6.9 -4.1,-10.5c1.3,3.4 2.6,6.9 3.9,10.5l0.2,0zm-13,-33.9c2.2,5.8 4.3,11.4 6.5,17c-2.1,-5.7 -4.3,-11.5 -6.5,-17.3c-0.3,0.7 -0.6,1.2 -0.8,1.7c-4.2,11 -8.4,22 -12.5,33c-0.2,0.5 -0.4,0.9 -0.7,1.2c-0.1,0.1 -0.1,0.1 -0.2,0.2c-0.1,0.1 -0.3,0.2 -0.5,0.2c-0.3,0.1 -0.7,0 -1.3,-0.2l0,0c1.5,0.6 2.1,-0.1 2.6,-1.4c4.1,-11 8.3,-22 12.5,-32.9c0.4,-0.4 0.6,-0.8 0.9,-1.5zm-10,20.3c-2,5.2 -3.9,10.6 -5.9,15.6l0,0c2,-5 4,-10.4 5.9,-15.6zm-25,-7.4l-20,0l0,-19l-2,0l0,42.2c1,-0.1 2,-0.1 2,-0.1l0,-21.1l20,0l0,21l2,0l0,-42l-2,0l0,19z" class="st0" id="XMLID_48_"/>
  <path d="m321.6,0.8l-290.3,0.2l-31.3,10.7l0,60.6l31.6,10.7l289.8,0l31.6,-10.7l0,-60.6l-31.4,-10.9zm-276.6,62.2l-2,0l0,-21l-20,0l0,21.1c0,0 -1,0.1 -2,0.1l0,-42.2l2,0l0,19l20,0l0,-19l2,0l0,42zm48.8,1l-23.8,0l0,-1l0,0l0,-2l20.8,0c-1.3,-3.6 -2.6,-7 -3.9,-10.5c-0.1,-0.3 -0.2,-0.7 -0.4,-1c-0.4,-1.1 -0.8,-2.2 -1.2,-3.3c-0.3,-0.7 -0.5,-1.4 -0.8,-2.1c-2.1,-5.7 -4.3,-11.3 -6.5,-17c-0.3,0.7 -0.6,1.1 -0.8,1.6c-4.2,11 -8.4,21.9 -12.5,32.9c-0.5,1.4 -1.1,2 -2.6,1.4l0,0l0,0l0,0l0,0c2,-5 3.9,-10.4 5.9,-15.6c3.3,-8.6 6.6,-17.4 9.9,-26.2c5.4,14.2 10.6,27.8 15.8,41.8l-0.2,0c0.2,0.2 0.2,0 0.3,1zm18.5,-18.2c0.2,2.5 0.5,5.1 1.1,7.6c1.1,4.6 3.9,7.5 8.2,8c2.6,0.3 5.4,0.3 8,-0.3c2,-0.4 3.8,-1.9 6,-3.1c0.1,0.1 0.4,0.5 0.9,0.9c-1.4,2.2 -3.4,3.4 -5.7,4.1c-3.7,1.1 -7.5,1.2 -11.2,0c-3.6,-1.1 -6.2,-3.6 -7.5,-7.6c-2.1,-6.3 -2.1,-12.9 -1.4,-19.4c0.2,-1.8 0.6,-3.6 1,-5.4c1.5,-5.4 4.9,-8.4 9.8,-9.2c3.9,-0.6 7.8,-0.5 11.4,1.5c1.3,0.7 2.4,1.8 3.8,2.9c-0.7,0.6 -1.1,1 -1.6,1.4c-3.8,-4.4 -8.7,-4.4 -13.7,-3.7c-4.2,0.6 -6.8,3.4 -8,7.9c-1.3,4.8 -1.4,9.6 -1.1,14.4zm46.7,17.3c-0.3,0 -0.5,0 -0.7,0c-0.1,0 -0.2,0 -0.3,0c-0.2,0 -0.5,0 -1,0.1l0,0c-0.2,0 0,0 -1,0l0,-40.2l1,0l0,-1l2,0l0,41.1zm20.2,-1.1c-5.7,-6.5 -11.5,-12.9 -17.3,-19.3c-0.3,-0.4 -0.7,-0.8 -1.1,-1.3c2,-2.2 3.9,-4.3 5.9,-6.5c3.5,-3.9 7,-7.7 10.5,-11.7c1.1,-1.2 2.1,-1.5 3.3,-1.2c-5.6,6.4 -11.2,12.8 -16.7,19c6.4,7.3 12.7,14.5 19.2,21.9c-1.7,0.5 -2.8,0.3 -3.8,-0.9zm61.8,-40.2l0,0c0,9.3 0,18.5 0,27.7l0,0c0,0.1 0,0.3 0,0.4c-0.1,1 -0.4,2 -0.7,3c-0.8,3.1 -2.2,5.6 -4.1,7.4c-2.9,2.9 -7,3.8 -11.6,2.5c-0.6,-0.2 -1.3,-0.4 -1.8,-0.7c-0.4,-0.2 -0.8,-0.4 -1.1,-0.6c-0.2,-0.1 -0.4,-0.2 -0.5,-0.4c-0.3,-0.3 -0.7,-0.5 -1,-0.8c-0.5,-0.5 -0.9,-0.9 -1.3,-1.5c-0.1,-0.2 -0.3,-0.4 -0.4,-0.5l0,0c-0.1,-0.2 -0.3,-0.4 -0.4,-0.6c-0.1,-0.2 -0.2,-0.4 -0.3,-0.6c-0.2,-0.4 -0.4,-0.8 -0.6,-1.3c-1.6,-3.9 -2.1,-8 -2.2,-12.2c-0.1,-7.1 -0.1,-14.1 -0.1,-21.1l0,-0.2c0,-0.1 0,-0.2 0.1,-0.2l0,-0.1c0,-0.1 0,-0.1 0,-0.2c0,0 0,0 0,-0.1s0,-0.3 0,-0.6l1.8,0l0,2.5c0,6.8 -0.1,13.6 0.1,20.4c0.1,3 0.5,6.1 1.2,9c1.3,5 4.5,7.8 9,8.2c0.3,0 0.6,0 0.8,0c0.4,0 0.7,0 1,0c4.5,-0.3 7.9,-3.1 9.1,-8.1c0.8,-3.3 0.9,-6.7 1,-10.1c0.2,-6.4 -0.2,-12.9 -0.2,-19.3l0,-1.7l1,0l0,-1l1.3,0c0,0.3 0.1,0.5 0.1,0.6c0,0 -0.2,0 -0.2,0.2l-0.2,-0.2l0,0.2l0.2,0zm33.7,41.5c-5.3,-14.1 -10.5,-27.9 -15.8,-41.6c1.8,-0.6 1.8,-0.6 2.5,1.2c4.1,10.9 8.3,21.8 12.4,32.6c0.2,0.7 0.5,1.3 0.9,2.3c1.2,-3.2 2.3,-6.1 3.4,-8.9c3.3,-8.6 6.6,-17.2 9.8,-25.9c0.5,-1.4 1.1,-2 2.6,-1.4c-5.2,13.7 -10.4,27.5 -15.8,41.7zm60.7,-0.3l-23.4,0c0,-1 0,-0.8 0,-1s0,-0.5 0,-0.8l0,-0.2l0,0c0,-0.1 0,0 0,0l20.6,0c-4.3,-12 -8.5,-22.9 -12.8,-34.3c-0.4,0.9 -0.6,1.2 -0.8,1.8c-4.1,10.9 -8.3,21.6 -12.4,32.5c-0.5,1.3 -1,1.8 -2.6,1.2l0,-0.3l0,0c0.6,-1 1.3,-3.2 2,-5c0.6,-1.7 1.3,-3.4 2,-5.1c3.9,-10.4 7.9,-20.9 11.9,-31.6c2.6,6.8 5.1,13.7 7.6,20.4c0.4,1.2 0.9,2.3 1.3,3.5c0.5,1.4 1.1,2.8 1.6,4.2c0.1,0.3 0.3,0.7 0.4,1c1.6,4.3 3.3,8.5 4.9,12.6l-0.2,0c-0.2,0.3 -0.1,0.1 -0.1,1.1z" class="st0" id="XMLID_65_"/>
  <path d="m93.8,62.78038l-23.8,0l0,-2l21,0c-1.4,-3.4 -2.7,-6.9 -4.1,-10.5c-0.1,-0.3 -0.2,-0.7 -0.4,-1c-0.4,-1.1 -0.8,-2.2 -1.2,-3.3c-0.3,-0.7 -0.5,-1.4 -0.8,-2.1c-2.1,-5.7 -4.3,-11.5 -6.5,-17.3c-0.3,0.7 -0.6,1.2 -0.8,1.7c-4.2,11 -8.4,22 -12.5,33c-0.2,0.5 -0.4,0.9 -0.7,1.2c-0.1,0.1 -0.1,0.1 -0.2,0.2c-0.1,0.1 -0.3,0.2 -0.5,0.2c-0.3,0.1 -0.7,0 -1.2,-0.2l0,0l0,0c2,-5 3.9,-10.4 5.9,-15.6c3.3,-8.6 6.6,-17.4 9.9,-26.2c5.4,14.3 10.6,27.9 15.9,41.9z" class="st0" id="XMLID_57_"/>
  <path d="m135.6,57.429666c0.1,0.1 0.4,0.5 0.9,0.9c-1.4,2.2 -3.4,3.4 -5.7,4.1c-3.7,1.1 -7.5,1.2 -11.2,0c-3.6,-1.1 -6.2,-3.6 -7.5,-7.6c-2.1,-6.3 -2.1,-12.9 -1.4,-19.4c0.2,-1.8 0.6,-3.6 1,-5.4c1.5,-5.4 4.9,-8.4 9.8,-9.2c3.9,-0.6 7.8,-0.5 11.4,1.5c1.3,0.7 2.4,1.8 3.8,2.9c-0.7,0.6 -1.1,1 -1.6,1.4c-3.8,-4.4 -8.7,-4.4 -13.7,-3.7c-4.2,0.6 -6.8,3.4 -8,7.9c-1.3,4.6 -1.5,9.4 -1.1,14.2c0.2,2.5 0.5,5.1 1.1,7.6c1.1,4.6 3.9,7.5 8.2,8c2.6,0.3 5.4,0.3 8,-0.3c2,-0.3 3.8,-1.8 6,-2.9z" class="st0" id="XMLID_24_"/>
  <path d="m159,21.299988l0,41.1c-0.3,0 -0.5,0 -0.7,0c-0.1,0 -0.2,0 -0.3,0c-0.2,0 -0.5,0 -1,0.1l0,-41.2l2,0z" class="st0" id="XMLID_35_"/>
  <path d="m182.8,62.298538c-1.6,0.4 -2.6,0.3 -3.7,-0.9c-5.7,-6.5 -11.5,-12.9 -17.3,-19.3c-0.3,-0.4 -0.7,-0.8 -1.1,-1.3c2,-2.2 3.9,-4.3 5.9,-6.5c3.5,-3.9 7,-7.7 10.5,-11.7c1.1,-1.2 2.1,-1.5 3.3,-1.2c-5.6,6.4 -11.2,12.8 -16.7,19c6.4,7.3 12.7,14.5 19.1,21.9z" class="st0" id="XMLID_22_"/>
  <path d="m241,21.346948l0,0.2l0,0c0,9.2 -0.1,18.5 -0.3,27.7c0,0.1 0.1,0.2 0.1,0.3c-0.1,1 -0.3,2 -0.6,3c-2.2,8.2 -8.3,12.1 -15.7,9.9c-2.4,-0.7 -4.2,-2.1 -5.7,-4c-0.1,-0.2 -0.2,-0.4 -0.4,-0.5l0,0c-0.1,-0.2 -0.2,-0.4 -0.4,-0.6c-0.1,-0.2 -0.2,-0.4 -0.3,-0.6c-0.2,-0.4 -0.4,-0.8 -0.6,-1.3c-1.6,-3.9 -2.1,-8 -2.2,-12.2c-0.1,-7.1 -0.1,-14.1 -0.1,-21.1l0,-0.2c0,-0.1 0,-0.2 0.1,-0.2l0,-0.1c0,0 0,-0.1 0,-0.2c0,0 0,0 0,-0.1s0,-0.3 0,-0.6l1.8,0l0,2.5c0,6.8 -0.1,13.6 0.1,20.4c0.1,3 0.5,6.1 1.2,9c1.3,5 4.5,7.8 9,8.2c0.3,0 0.6,0 0.8,0c0.4,0 0.7,0 1,0c4.5,-0.3 7.9,-3.1 9.1,-8.1c0.8,-3.3 1.4,-6.7 1.5,-10.1c0.2,-6.4 0.2,-12.9 0.2,-19.3l0,-2.6l1.3,0c0,0.3 0.1,0.5 0.1,0.6c0,0 -0.2,0 -0.2,0.1c0.4,-0.1 0.2,-0.2 0.2,-0.1z" class="st0" id="XMLID_36_"/>
  <path d="m290.5,21.179413c-5.2,13.8 -10.4,27.6 -15.8,41.7c-5.3,-14.1 -10.5,-27.9 -15.8,-41.6c1.8,-0.6 1.8,-0.6 2.5,1.2c4.1,10.9 8.3,21.8 12.4,32.6c0.2,0.7 0.5,1.3 0.9,2.3c1.2,-3.2 2.3,-6.1 3.4,-8.9c3.3,-8.6 6.6,-17.2 9.8,-25.9c0.5,-1.3 1.1,-1.9 2.6,-1.4z" class="st0" id="XMLID_21_"/>
  <path d="m335.4,62.39859l-23.4,0c0,0 0,-0.1 0,-0.2c0,-0.2 0,-0.4 0,-0.7l0,-0.1l20.7,0c-0.1,-0.2 -0.1,-0.3 -0.2,-0.5c-4.3,-11.8 -8.5,-22.7 -12.8,-34.1c-0.4,0.9 -0.6,1.3 -0.8,1.9c-4.1,10.9 -8.3,21.7 -12.4,32.6c-0.5,1.3 -1,2.1 -2.6,1.5l0,0c0.6,-1.7 1.3,-3.4 1.9,-5.2c0.6,-1.7 1.3,-3.5 2,-5.2c3.9,-10.4 7.9,-21 11.9,-31.6c2.6,6.8 5.1,13.6 7.6,20.4c0.4,1.2 0.9,2.3 1.3,3.5c0.5,1.4 1.1,2.8 1.6,4.1c0.1,0.3 0.3,0.7 0.4,1c1.6,4.3 3.2,8.5 4.8,12.6z" class="st0" id="XMLID_34_"/>
  <circle r="8" cy="41.899963" cx="198.8" class="st1" id="XMLID_6_"/>
  <path d="m335.4,62.799988l-23.4,0c0,-0.3 0,-0.5 0,-0.7s0,-0.4 0,-0.7l0,-0.1c0,-0.1 0,-0.3 0,-0.5l20.7,0c-4.4,-12 -8.6,-22.8 -13,-34.3c-0.4,0.9 -0.6,1.5 -0.8,2.1c-4.1,10.9 -8.3,21.8 -12.4,32.7c-0.5,1.3 -1,1.5 -2.6,1.5l0,0c0.6,-2 1.3,-3.5 2,-5.2c0.6,-1.7 1.3,-3.5 2,-5.2c3.9,-10.3 7.9,-20.8 11.9,-31.4c2.6,6.8 5.1,13.5 7.6,20.1c0.4,1.2 0.9,2.3 1.3,3.5c0.5,1.4 1.1,2.8 1.6,4.1c0.1,0.3 0.3,0.7 0.4,1c1.6,4.2 3.1,8.3 4.7,12.6c-0.1,0.2 0,0.3 0,0.5z" class="st3" id="XMLID_32_"/>
  <path d="m70.5,60.900009l20.5,0c-0.1,-0.2 -0.1,-0.3 -0.2,-0.5c-1.3,-3.6 -2.6,-7 -3.9,-10.5c-0.1,-0.3 -0.2,-0.7 -0.4,-1c-0.4,-1.1 -0.8,-2.2 -1.2,-3.3c-0.3,-0.7 -0.5,-1.4 -0.8,-2.1c-2.1,-5.7 -4.3,-11.3 -6.5,-17c-0.3,0.7 -0.6,1.1 -0.8,1.6c-4.2,11 -8.4,21.9 -12.5,32.9c-0.5,1.4 -1.1,2 -2.6,1.4l0,0l0,0c5.2,-13.8 10.4,-27.4 15.8,-41.5c5.3,14 10.5,27.7 15.6,41.5c0.1,0.2 0.1,0.3 0.2,0.5l-23.3,0l0.1,-2l0,0z" class="st3" id="XMLID_33_"/>
  <path d="m44.5,20.399979l0,43l-2,0l0,-21l-19,0l0,20.6c-1,0 -2,0.1 -2,0.1l0,-42.7l2,0l0,19l19,0l0,-19l2,0l0,0z" class="st3" id="XMLID_20_"/>
  <path d="m241.5,21.25929l0,0c0,9.3 0,18.5 -1,27.7l0,0c0,0.1 0.2,0.3 0.2,0.4c-0.1,1 -0.3,2 -0.5,3c-0.8,3.1 -2.2,5.6 -4,7.4c-2.9,2.9 -7,3.8 -11.6,2.5c-0.6,-0.2 -1.2,-0.4 -1.8,-0.7c-0.4,-0.2 -0.7,-0.4 -1.1,-0.6c-0.2,-0.1 -0.3,-0.2 -0.5,-0.4c-0.1,-0.1 -0.2,-0.2 -0.3,-0.3c-0.1,-0.1 -0.2,-0.2 -0.3,-0.2c-0.1,-0.1 -0.2,-0.2 -0.3,-0.3l-0.1,-0.1l-0.1,-0.1c-0.4,-0.4 -0.7,-0.8 -1.1,-1.3c-0.1,-0.2 -0.2,-0.4 -0.4,-0.5l0,0c-0.1,-0.2 -0.2,-0.4 -0.4,-0.6c-0.1,-0.2 -0.2,-0.4 -0.3,-0.6c-0.2,-0.4 -0.4,-0.8 -0.6,-1.3c-1.6,-3.9 -2.1,-8 -2.2,-12.2c-0.1,-7.1 0,-14.1 0,-21.1c0,-0.1 0,-0.3 0,-0.5l0,-0.1c0,-0.1 0,-0.1 0,-0.2c0,0 0,0 0,-0.1s0,-0.1 0,-0.1l1.3,0l0,2c0,6.8 0.1,13.6 0.3,20.4c0.1,3 0.6,6.1 1.3,9c1.3,5 4.6,7.9 9.1,8.2c0.3,0 0.6,0 0.8,0c0.4,0 0.7,0 1,0c4.5,-0.3 7.9,-3.1 9.1,-8.1c0.8,-3.3 1.1,-6.7 1.2,-10.1c0.2,-6.4 0,-12.9 0,-19.3l0,-2.1l1.8,0c0,0 0.1,0 0.1,0.1c0,0 0,0 0.1,0.1c0.3,0 0.3,0 0.3,0.1z" class="st3" id="XMLID_45_"/>
  <path d="m135.6,57.429666c0.1,0.1 0.4,0.5 0.9,0.9c-1.4,2.2 -3.4,3.4 -5.7,4.1c-3.7,1.1 -7.5,1.2 -11.2,0c-3.6,-1.1 -6.2,-3.6 -7.5,-7.6c-2.1,-6.3 -2.1,-12.9 -1.4,-19.4c0.2,-1.8 0.6,-3.6 1,-5.4c1.5,-5.4 4.9,-8.4 9.8,-9.2c3.9,-0.6 7.8,-0.5 11.4,1.5c1.3,0.7 2.4,1.8 3.8,2.9c-0.7,0.6 -1.1,1 -1.6,1.4c-3.8,-4.4 -8.7,-4.4 -13.7,-3.7c-4.2,0.6 -6.8,3.4 -8,7.9c-1.3,4.6 -1.5,9.4 -1.1,14.2c0.2,2.5 0.5,5.1 1.1,7.6c1.1,4.6 3.9,7.5 8.2,8c2.6,0.3 5.4,0.3 8,-0.3c2,-0.3 3.8,-1.8 6,-2.9z" class="st3" id="XMLID_19_"/>
  <path d="m290.5,21.179413c-5.2,13.8 -10.4,27.6 -15.8,41.7c-5.3,-14.1 -10.5,-27.9 -15.8,-41.6c1.8,-0.6 1.8,-0.6 2.5,1.2c4.1,10.9 8.3,21.8 12.4,32.6c0.2,0.7 0.5,1.3 0.9,2.3c1.2,-3.2 2.3,-6.1 3.4,-8.9c3.3,-8.6 6.6,-17.2 9.8,-25.9c0.5,-1.3 1.1,-1.9 2.6,-1.4z" class="st3" id="XMLID_17_"/>
  <path d="m182.8,62.298538c-1.6,0.4 -2.6,0.3 -3.7,-0.9c-5.7,-6.5 -11.5,-12.9 -17.3,-19.3c-0.3,-0.4 -0.7,-0.8 -1.1,-1.3c2,-2.2 3.9,-4.3 5.9,-6.5c3.5,-3.9 7,-7.7 10.5,-11.7c1.1,-1.2 2.1,-1.5 3.3,-1.2c-5.6,6.4 -11.2,12.8 -16.7,19c6.4,7.3 12.7,14.5 19.1,21.9z" class="st3" id="XMLID_13_"/>
  <path d="m158.5,21.649994l0,40.6c0,0 -0.1,0 -0.2,0s-0.2,0 -0.3,0c-0.3,0 -0.6,0 -1,0c-0.2,0 -0.3,0 -0.5,0l0,-40.7l2,0l0,0.1z" class="st3" id="XMLID_15_"/>
 </g>
</svg>