<svg width="433" height="349" xmlns="http://www.w3.org/2000/svg">
 <style type="text/css">.st0{fill:#EF9235;}
	.st1{fill:#FFFFFF;}
	.st2{fill:#00ADEF;}
	.st3{fill:none;stroke:#EF9235;stroke-width:5;stroke-miterlimit:10;}
	.st4{fill:#FFFFFF;stroke:#FFFFFF;stroke-miterlimit:10;}</style>

 <g>
  <title>background</title>
  <path height="351" width="435" y="-1" x="-1" fill="none" id="canvas_background" d="m-1,-1l435,0l0,498l-435,0l0,-498z" class="kSpqFtUp_0"/>
 </g>
 <g>
  <title>Layer 1</title>
  <path fill="none" stroke-width="6" stroke-linejoin="null" stroke-linecap="null" id="svg_11" stroke="#ef9235" d="m139,72l172,0l0,190.00001l-172,0l0,-190.00001z" class="kSpqFtUp_1"/>
  <path id="svg_9" stroke-width="6" fill="none" stroke="#ef9235" d="m84.00002,72l284,0l0,186l-284,0l0,-186z" class="kSpqFtUp_2"/>
  <path d="m384.2,316l-23.2,0c0,0 0,0.2 0,0c0,0.2 0,0 0,1l23.4,0c0,-1 -0.1,-0.8 -0.2,-1zm-2.7,-1l-20.6,0c0,0 0,-0.1 0,0l20.7,0c0,-0.2 -0.1,0 -0.1,0zm-28.7,1c0.6,-1 1.3,-3.4 1.9,-5.2c-0.6,1.8 -1.2,4.2 -1.9,5.2l0,0zm-62.9,-12c0,-0.1 0,-0.3 0,-0.4c0,0.1 0,0.2 0,0.3l0,0.1zm-1.9,-26.4c0,6.4 0.4,12.9 0.2,19.3c-0.1,3.4 -0.3,6.9 -1.1,10.1c-1.2,5 -4.5,7.8 -9,8.1c4.5,-0.3 7.9,-3.1 9.2,-8.1c0.8,-3.3 1.4,-6.7 1.5,-10.1c0.2,-6.4 0.3,-12.9 0.3,-19.3l0,-1.6l-1,0l0,1.6l-0.1,0zm-14.4,39.2c-0.6,-0.2 -1.3,-0.4 -1.8,-0.7c0.5,0.3 1.2,0.5 1.8,0.7c4.6,1.3 8.7,0.4 11.6,-2.5c-2.9,2.9 -7,3.9 -11.6,2.5zm-68.6,0.4c1,0 0.8,0 1,0l0,-40.2l-1,0l0,40.2zm-86,-0.2l0,1l23.8,0c-0.1,-1 -0.1,-0.8 -0.2,-1l-23.6,0zm21,-2c-1.4,-3.4 -2.7,-6.9 -4.1,-10.5c1.3,3.4 2.6,6.9 3.9,10.5l0.2,0zm-13,-33.9c2.2,5.8 4.3,11.4 6.5,17c-2.1,-5.7 -4.3,-11.5 -6.5,-17.3c-0.3,0.7 -0.6,1.2 -0.8,1.7c-4.2,11 -8.4,22 -12.5,33c-0.2,0.5 -0.4,0.9 -0.7,1.2c-0.1,0.1 -0.1,0.1 -0.2,0.2c-0.1,0.1 -0.3,0.2 -0.5,0.2c-0.3,0.1 -0.7,0 -1.3,-0.2l0,0c1.5,0.6 2.1,-0.1 2.6,-1.4c4.1,-11 8.3,-22 12.5,-32.9c0.4,-0.4 0.6,-0.8 0.9,-1.5zm-10,20.3c-2,5.2 -3.9,10.6 -5.9,15.6l0,0c2,-5 4,-10.4 5.9,-15.6zm-25,-7.4l-20,0l0,-19l-2,0l0,42.2c1,-0.1 2,-0.1 2,-0.1l0,-21.1l20,0l0,21l2,0l0,-42l-2,0l0,19z" class="st2 kSpqFtUp_3" id="XMLID_48_"/>
  <g id="lKbWxD.tif_1_">
   <g id="XMLID_7_">
    <path id="svg_2" d="m368.2,117.2c-2.6,-12.1 -4.3,-15.4 -4.3,-15.4c-3.9,-9 -8.3,-21.7 -16.1,-32.4c-7.3,-12 -15.3,-20.3 -24.6,-28.8c-13.4,-12.2 -28.6,-21.7 -45.7,-27.7c-7.7,-2.7 -15.6,-5 -23.5,-7.1c-4,-1.1 -8.2,-1.3 -12.3,-2c-0.8,-0.2 -1.6,-0.5 -2.4,-0.7l-26.9,0c-3.5,0.7 -7.2,1.2 -10.7,2.1c-8.2,2 -16.5,3.6 -24.4,6.3c-11.9,4 -23.1,9.7 -33.4,16.9c-15.8,11 -29.3,24.3 -39.4,40.8c-0.8,1.4 -6.2,9.4 -6.2,9.4c-3.5,8.3 -7.8,16.2 -10.7,25.1c-3.3,10.3 -6.7,31.8 -6.7,42.8c0,6.1 1.8,25.3 2.8,30.3c1.2,6.2 4,15.6 4,15.6c6.4,18.1 15.5,34.5 28,49.5c0,0 7.5,8.3 8.6,9.2c4,3.2 7.8,6.6 11.5,10.1c0.7,0.7 8.6,7.4 8.6,7.4c11.6,5.6 23.4,11.4 34.6,16.9l94.2,-0.1c10.8,-5.3 22.6,-11.1 34.4,-16.8c0,0 7.8,-6.8 8.4,-7.4c4,-3.6 8,-7.1 12,-10.6c0.8,-0.7 7.4,-7.8 8.2,-8.7c12.1,-14.6 21.3,-30.5 27.8,-48.1c0,0 1.8,-4.8 3.6,-12.5c3.7,-15.7 4,-48.2 0.6,-64.1zm-4.7,42.6c-1.2,12.1 -3.5,24 -7.8,35.5c-5.7,15.5 -13.8,29.4 -24.7,41.7c-3.4,3.9 -11.1,12 -11.1,12c-2,1.5 -3.4,2.6 -5.1,4c0,0 -7.9,6.7 -8.6,7.2c-15.8,12 -33.8,19.2 -53,23.3c-12.8,2.7 -26,3.1 -38.9,2c-21.5,-1.9 -41.8,-7.8 -60.1,-19.7c-1.2,-0.8 -2.3,-1.6 -3.5,-2.1c-4.4,-1.9 -13.7,-10.7 -13.7,-10.7c-1.6,-1.2 -3,-2.2 -5.1,-3.8c0,0 -7.8,-8.3 -8.5,-9.1c-12,-13.6 -21.6,-28.6 -27.6,-45.8c-3.6,-10.4 -5.9,-21 -7,-31.9c-1.2,-12.3 -1,-24.6 0.8,-36.9c0.2,-0.9 0.6,-1.9 1,-2.9l1.2,-7.1c2.5,-12.5 7.3,-24 13.4,-35c0.4,-0.8 5.8,-9.2 5.6,-9.2c11.7,-17 25.8,-30.7 42.9,-41.4c17,-10.6 35.6,-17 55.4,-19.2c34.3,-3.7 66.3,3.2 94.9,23c14.5,10.1 26.9,22.5 36.9,37.7c0,0 6.3,9.9 6.8,10.9c5.5,10.5 10,21.3 12.4,33.2c0,0 3.3,15.8 3.5,20.2c0.3,8 0.7,16.1 -0.1,24.1z" class="st0 kSpqFtUp_4"/>
    <path d="m363.6,101.8" class="st1 kSpqFtUp_5" id="XMLID_8_"/>
   </g>
  </g>
  <path d="m370.6,254.8l-290.3,0.2l-31.3,10.7l0,60.6l31.6,10.7l289.8,0l31.6,-10.7l0,-60.6l-31.4,-10.9zm-276.6,62.2l-2,0l0,-21l-20,0l0,21.1c0,0 -1,0.1 -2,0.1l0,-42.2l2,0l0,19l20,0l0,-19l2,0l0,42zm48.8,1l-23.8,0l0,-1l0,0l0,-2l20.8,0c-1.3,-3.6 -2.6,-7 -3.9,-10.5c-0.1,-0.3 -0.2,-0.7 -0.4,-1c-0.4,-1.1 -0.8,-2.2 -1.2,-3.3c-0.3,-0.7 -0.5,-1.4 -0.8,-2.1c-2.1,-5.7 -4.3,-11.3 -6.5,-17c-0.3,0.7 -0.6,1.1 -0.8,1.6c-4.2,11 -8.4,21.9 -12.5,32.9c-0.5,1.4 -1.1,2 -2.6,1.4l0,0l0,0l0,0l0,0c2,-5 3.9,-10.4 5.9,-15.6c3.3,-8.6 6.6,-17.4 9.9,-26.2c5.4,14.2 10.6,27.8 15.8,41.8l-0.2,0c0.2,0.2 0.2,0 0.3,1zm18.5,-18.2c0.2,2.5 0.5,5.1 1.1,7.6c1.1,4.6 3.9,7.5 8.2,8c2.6,0.3 5.4,0.3 8,-0.3c2,-0.4 3.8,-1.9 6,-3.1c0.1,0.1 0.4,0.5 0.9,0.9c-1.4,2.2 -3.4,3.4 -5.7,4.1c-3.7,1.1 -7.5,1.2 -11.2,0c-3.6,-1.1 -6.2,-3.6 -7.5,-7.6c-2.1,-6.3 -2.1,-12.9 -1.4,-19.4c0.2,-1.8 0.6,-3.6 1,-5.4c1.5,-5.4 4.9,-8.4 9.8,-9.2c3.9,-0.6 7.8,-0.5 11.4,1.5c1.3,0.7 2.4,1.8 3.8,2.9c-0.7,0.6 -1.1,1 -1.6,1.4c-3.8,-4.4 -8.7,-4.4 -13.7,-3.7c-4.2,0.6 -6.8,3.4 -8,7.9c-1.3,4.8 -1.4,9.6 -1.1,14.4zm46.7,17.3c-0.3,0 -0.5,0 -0.7,0c-0.1,0 -0.2,0 -0.3,0c-0.2,0 -0.5,0 -1,0.1l0,0c-0.2,0 0,0 -1,0l0,-40.2l1,0l0,-1l2,0l0,41.1zm20.2,-1.1c-5.7,-6.5 -11.5,-12.9 -17.3,-19.3c-0.3,-0.4 -0.7,-0.8 -1.1,-1.3c2,-2.2 3.9,-4.3 5.9,-6.5c3.5,-3.9 7,-7.7 10.5,-11.7c1.1,-1.2 2.1,-1.5 3.3,-1.2c-5.6,6.4 -11.2,12.8 -16.7,19c6.4,7.3 12.7,14.5 19.2,21.9c-1.7,0.5 -2.8,0.3 -3.8,-0.9zm61.8,-40.2l0,0c0,9.3 0,18.5 0,27.7l0,0c0,0.1 0,0.3 0,0.4c-0.1,1 -0.4,2 -0.7,3c-0.8,3.1 -2.2,5.6 -4.1,7.4c-2.9,2.9 -7,3.8 -11.6,2.5c-0.6,-0.2 -1.3,-0.4 -1.8,-0.7c-0.4,-0.2 -0.8,-0.4 -1.1,-0.6c-0.2,-0.1 -0.4,-0.2 -0.5,-0.4c-0.3,-0.3 -0.7,-0.5 -1,-0.8c-0.5,-0.5 -0.9,-0.9 -1.3,-1.5c-0.1,-0.2 -0.3,-0.4 -0.4,-0.5l0,0c-0.1,-0.2 -0.3,-0.4 -0.4,-0.6c-0.1,-0.2 -0.2,-0.4 -0.3,-0.6c-0.2,-0.4 -0.4,-0.8 -0.6,-1.3c-1.6,-3.9 -2.1,-8 -2.2,-12.2c-0.1,-7.1 -0.1,-14.1 -0.1,-21.1l0,-0.2c0,-0.1 0,-0.2 0.1,-0.2l0,-0.1c0,-0.1 0,-0.1 0,-0.2c0,0 0,0 0,-0.1s0,-0.3 0,-0.6l1.8,0l0,2.5c0,6.8 -0.1,13.6 0.1,20.4c0.1,3 0.5,6.1 1.2,9c1.3,5 4.5,7.8 9,8.2c0.3,0 0.6,0 0.8,0c0.4,0 0.7,0 1,0c4.5,-0.3 7.9,-3.1 9.1,-8.1c0.8,-3.3 0.9,-6.7 1,-10.1c0.2,-6.4 -0.2,-12.9 -0.2,-19.3l0,-1.7l1,0l0,-1l1.3,0c0,0.3 0.1,0.5 0.1,0.6c0,0 -0.2,0 -0.2,0.2l-0.2,-0.2l0,0.2l0.2,0zm33.7,41.5c-5.3,-14.1 -10.5,-27.9 -15.8,-41.6c1.8,-0.6 1.8,-0.6 2.5,1.2c4.1,10.9 8.3,21.8 12.4,32.6c0.2,0.7 0.5,1.3 0.9,2.3c1.2,-3.2 2.3,-6.1 3.4,-8.9c3.3,-8.6 6.6,-17.2 9.8,-25.9c0.5,-1.4 1.1,-2 2.6,-1.4c-5.2,13.7 -10.4,27.5 -15.8,41.7zm60.7,-0.3l-23.4,0c0,-1 0,-0.8 0,-1s0,-0.5 0,-0.8l0,-0.2l0,0c0,-0.1 0,0 0,0l20.6,0c-4.3,-12 -8.5,-22.9 -12.8,-34.3c-0.4,0.9 -0.6,1.2 -0.8,1.8c-4.1,10.9 -8.3,21.6 -12.4,32.5c-0.5,1.3 -1,1.8 -2.6,1.2l0,-0.3l0,0c0.6,-1 1.3,-3.2 2,-5c0.6,-1.7 1.3,-3.4 2,-5.1c3.9,-10.4 7.9,-20.9 11.9,-31.6c2.6,6.8 5.1,13.7 7.6,20.4c0.4,1.2 0.9,2.3 1.3,3.5c0.5,1.4 1.1,2.8 1.6,4.2c0.1,0.3 0.3,0.7 0.4,1c1.6,4.3 3.3,8.5 4.9,12.6l-0.2,0c-0.2,0.3 -0.1,0.1 -0.1,1.1z" class="st2 kSpqFtUp_6" id="XMLID_65_"/>
  <path d="m142.8,317l-23.8,0l0,-2l21,0c-1.4,-3.4 -2.7,-6.9 -4.1,-10.5c-0.1,-0.3 -0.2,-0.7 -0.4,-1c-0.4,-1.1 -0.8,-2.2 -1.2,-3.3c-0.3,-0.7 -0.5,-1.4 -0.8,-2.1c-2.1,-5.7 -4.3,-11.5 -6.5,-17.3c-0.3,0.7 -0.6,1.2 -0.8,1.7c-4.2,11 -8.4,22 -12.5,33c-0.2,0.5 -0.4,0.9 -0.7,1.2c-0.1,0.1 -0.1,0.1 -0.2,0.2c-0.1,0.1 -0.3,0.2 -0.5,0.2c-0.3,0.1 -0.7,0 -1.2,-0.2l0,0l0,0c2,-5 3.9,-10.4 5.9,-15.6c3.3,-8.6 6.6,-17.4 9.9,-26.2c5.4,14.3 10.6,27.9 15.9,41.9z" class="st2 kSpqFtUp_7" id="XMLID_57_"/>
  <path d="m184.6,312.1c0.1,0.1 0.4,0.5 0.9,0.9c-1.4,2.2 -3.4,3.4 -5.7,4.1c-3.7,1.1 -7.5,1.2 -11.2,0c-3.6,-1.1 -6.2,-3.6 -7.5,-7.6c-2.1,-6.3 -2.1,-12.9 -1.4,-19.4c0.2,-1.8 0.6,-3.6 1,-5.4c1.5,-5.4 4.9,-8.4 9.8,-9.2c3.9,-0.6 7.8,-0.5 11.4,1.5c1.3,0.7 2.4,1.8 3.8,2.9c-0.7,0.6 -1.1,1 -1.6,1.4c-3.8,-4.4 -8.7,-4.4 -13.7,-3.7c-4.2,0.6 -6.8,3.4 -8,7.9c-1.3,4.6 -1.5,9.4 -1.1,14.2c0.2,2.5 0.5,5.1 1.1,7.6c1.1,4.6 3.9,7.5 8.2,8c2.6,0.3 5.4,0.3 8,-0.3c2,-0.3 3.8,-1.8 6,-2.9z" class="st2 kSpqFtUp_8" id="XMLID_24_"/>
  <path d="m208,276l0,41.1c-0.3,0 -0.5,0 -0.7,0c-0.1,0 -0.2,0 -0.3,0c-0.2,0 -0.5,0 -1,0.1l0,-41.2l2,0z" class="st2 kSpqFtUp_9" id="XMLID_35_"/>
  <path d="m231.8,317c-1.6,0.4 -2.6,0.3 -3.7,-0.9c-5.7,-6.5 -11.5,-12.9 -17.3,-19.3c-0.3,-0.4 -0.7,-0.8 -1.1,-1.3c2,-2.2 3.9,-4.3 5.9,-6.5c3.5,-3.9 7,-7.7 10.5,-11.7c1.1,-1.2 2.1,-1.5 3.3,-1.2c-5.6,6.4 -11.2,12.8 -16.7,19c6.4,7.3 12.7,14.5 19.1,21.9z" class="st2 kSpqFtUp_10" id="XMLID_22_"/>
  <path d="m290,275.6l0,0.2l0,0c0,9.2 -0.1,18.5 -0.3,27.7c0,0.1 0.1,0.2 0.1,0.3c-0.1,1 -0.3,2 -0.6,3c-2.2,8.2 -8.3,12.1 -15.7,9.9c-2.4,-0.7 -4.2,-2.1 -5.7,-4c-0.1,-0.2 -0.2,-0.4 -0.4,-0.5l0,0c-0.1,-0.2 -0.2,-0.4 -0.4,-0.6c-0.1,-0.2 -0.2,-0.4 -0.3,-0.6c-0.2,-0.4 -0.4,-0.8 -0.6,-1.3c-1.6,-3.9 -2.1,-8 -2.2,-12.2c-0.1,-7.1 -0.1,-14.1 -0.1,-21.1l0,-0.2c0,-0.1 0,-0.2 0.1,-0.2l0,-0.1c0,0 0,-0.1 0,-0.2c0,0 0,0 0,-0.1s0,-0.3 0,-0.6l1.8,0l0,2.5c0,6.8 -0.1,13.6 0.1,20.4c0.1,3 0.5,6.1 1.2,9c1.3,5 4.5,7.8 9,8.2c0.3,0 0.6,0 0.8,0c0.4,0 0.7,0 1,0c4.5,-0.3 7.9,-3.1 9.1,-8.1c0.8,-3.3 1.4,-6.7 1.5,-10.1c0.2,-6.4 0.2,-12.9 0.2,-19.3l0,-2.6l1.3,0c0,0.3 0.1,0.5 0.1,0.6c0,0 -0.2,0 -0.2,0.1c0.4,-0.1 0.2,-0.2 0.2,-0.1z" class="st2 kSpqFtUp_11" id="XMLID_36_"/>
  <path d="m339.5,275.5c-5.2,13.8 -10.4,27.6 -15.8,41.7c-5.3,-14.1 -10.5,-27.9 -15.8,-41.6c1.8,-0.6 1.8,-0.6 2.5,1.2c4.1,10.9 8.3,21.8 12.4,32.6c0.2,0.7 0.5,1.3 0.9,2.3c1.2,-3.2 2.3,-6.1 3.4,-8.9c3.3,-8.6 6.6,-17.2 9.8,-25.9c0.5,-1.3 1.1,-1.9 2.6,-1.4z" class="st2 kSpqFtUp_12" id="XMLID_21_"/>
  <path d="m384.4,316l-23.4,0c0,0 0,-0.1 0,-0.2c0,-0.2 0,-0.4 0,-0.7l0,-0.1l20.7,0c-0.1,-0.2 -0.1,-0.3 -0.2,-0.5c-4.3,-11.8 -8.5,-22.7 -12.8,-34.1c-0.4,0.9 -0.6,1.3 -0.8,1.9c-4.1,10.9 -8.3,21.7 -12.4,32.6c-0.5,1.3 -1,2.1 -2.6,1.5l0,0c0.6,-1.7 1.3,-3.4 1.9,-5.2c0.6,-1.7 1.3,-3.5 2,-5.2c3.9,-10.4 7.9,-21 11.9,-31.6c2.6,6.8 5.1,13.6 7.6,20.4c0.4,1.2 0.9,2.3 1.3,3.5c0.5,1.4 1.1,2.8 1.6,4.1c0.1,0.3 0.3,0.7 0.4,1c1.6,4.3 3.2,8.5 4.8,12.6z" class="st2 kSpqFtUp_13" id="XMLID_34_"/>
  <path class="st0 kSpqFtUp_14" id="XMLID_6_" d="m239.8,305a8,8 0 1 1 16,0a8,8 0 1 1 -16,0"/>
  <path class="st3 kSpqFtUp_15" id="XMLID_5_" d="m247.5,309l0,41"/>
  <path class="st3 kSpqFtUp_16" id="XMLID_4_" d="m248,347.5l-216,0"/>
  <path class="st3 kSpqFtUp_17" id="XMLID_3_" d="m32.5,350l0,-107"/>
  <path class="st3 kSpqFtUp_18" id="XMLID_2_" stroke-width="17" d="m366.00001,245.5l-335.00001,0"/>
  <path d="m384.4,316.5l-23.4,0c0,-0.3 0,-0.5 0,-0.7s0,-0.4 0,-0.7l0,-0.1c0,-0.1 0,-0.3 0,-0.5l20.7,0c-4.4,-12 -8.6,-22.8 -13,-34.3c-0.4,0.9 -0.6,1.5 -0.8,2.1c-4.1,10.9 -8.3,21.8 -12.4,32.7c-0.5,1.3 -1,1.5 -2.6,1.5l0,0c0.6,-2 1.3,-3.5 2,-5.2c0.6,-1.7 1.3,-3.5 2,-5.2c3.9,-10.3 7.9,-20.8 11.9,-31.4c2.6,6.8 5.1,13.5 7.6,20.1c0.4,1.2 0.9,2.3 1.3,3.5c0.5,1.4 1.1,2.8 1.6,4.1c0.1,0.3 0.3,0.7 0.4,1c1.6,4.2 3.1,8.3 4.7,12.6c-0.1,0.2 0,0.3 0,0.5z" class="st4 kSpqFtUp_19" id="XMLID_32_"/>
  <path d="m119.5,315.5l20.5,0c-0.1,-0.2 -0.1,-0.3 -0.2,-0.5c-1.3,-3.6 -2.6,-7 -3.9,-10.5c-0.1,-0.3 -0.2,-0.7 -0.4,-1c-0.4,-1.1 -0.8,-2.2 -1.2,-3.3c-0.3,-0.7 -0.5,-1.4 -0.8,-2.1c-2.1,-5.7 -4.3,-11.3 -6.5,-17c-0.3,0.7 -0.6,1.1 -0.8,1.6c-4.2,11 -8.4,21.9 -12.5,32.9c-0.5,1.4 -1.1,2 -2.6,1.4l0,0l0,0c5.2,-13.8 10.4,-27.4 15.8,-41.5c5.3,14 10.5,27.7 15.6,41.5c0.1,0.2 0.1,0.3 0.2,0.5l-23.3,0l0.1,-2l0,0z" class="st4 kSpqFtUp_20" id="XMLID_33_"/>
  <path d="m93.5,274.5l0,43l-2,0l0,-21l-19,0l0,20.6c-1,0 -2,0.1 -2,0.1l0,-42.7l2,0l0,19l19,0l0,-19l2,0l0,0z" class="st4 kSpqFtUp_21" id="XMLID_20_"/>
  <path d="m290.5,275.8l0,0c0,9.3 0,18.5 -1,27.7l0,0c0,0.1 0.2,0.3 0.2,0.4c-0.1,1 -0.3,2 -0.5,3c-0.8,3.1 -2.2,5.6 -4,7.4c-2.9,2.9 -7,3.8 -11.6,2.5c-0.6,-0.2 -1.2,-0.4 -1.8,-0.7c-0.4,-0.2 -0.7,-0.4 -1.1,-0.6c-0.2,-0.1 -0.3,-0.2 -0.5,-0.4c-0.1,-0.1 -0.2,-0.2 -0.3,-0.3c-0.1,-0.1 -0.2,-0.2 -0.3,-0.2c-0.1,-0.1 -0.2,-0.2 -0.3,-0.3l-0.1,-0.1l-0.1,-0.1c-0.4,-0.4 -0.7,-0.8 -1.1,-1.3c-0.1,-0.2 -0.2,-0.4 -0.4,-0.5l0,0c-0.1,-0.2 -0.2,-0.4 -0.4,-0.6c-0.1,-0.2 -0.2,-0.4 -0.3,-0.6c-0.2,-0.4 -0.4,-0.8 -0.6,-1.3c-1.6,-3.9 -2.1,-8 -2.2,-12.2c-0.1,-7.1 0,-14.1 0,-21.1c0,-0.1 0,-0.3 0,-0.5l0,-0.1c0,-0.1 0,-0.1 0,-0.2c0,0 0,0 0,-0.1s0,-0.1 0,-0.1l1.3,0l0,2c0,6.8 0.1,13.6 0.3,20.4c0.1,3 0.6,6.1 1.3,9c1.3,5 4.6,7.9 9.1,8.2c0.3,0 0.6,0 0.8,0c0.4,0 0.7,0 1,0c4.5,-0.3 7.9,-3.1 9.1,-8.1c0.8,-3.3 1.1,-6.7 1.2,-10.1c0.2,-6.4 0,-12.9 0,-19.3l0,-2.1l1.8,0c0,0 0.1,0 0.1,0.1c0,0 0,0 0.1,0.1c0.3,0 0.3,0 0.3,0.1z" class="st4 kSpqFtUp_22" id="XMLID_45_"/>
  <path d="m184.6,312.1c0.1,0.1 0.4,0.5 0.9,0.9c-1.4,2.2 -3.4,3.4 -5.7,4.1c-3.7,1.1 -7.5,1.2 -11.2,0c-3.6,-1.1 -6.2,-3.6 -7.5,-7.6c-2.1,-6.3 -2.1,-12.9 -1.4,-19.4c0.2,-1.8 0.6,-3.6 1,-5.4c1.5,-5.4 4.9,-8.4 9.8,-9.2c3.9,-0.6 7.8,-0.5 11.4,1.5c1.3,0.7 2.4,1.8 3.8,2.9c-0.7,0.6 -1.1,1 -1.6,1.4c-3.8,-4.4 -8.7,-4.4 -13.7,-3.7c-4.2,0.6 -6.8,3.4 -8,7.9c-1.3,4.6 -1.5,9.4 -1.1,14.2c0.2,2.5 0.5,5.1 1.1,7.6c1.1,4.6 3.9,7.5 8.2,8c2.6,0.3 5.4,0.3 8,-0.3c2,-0.3 3.8,-1.8 6,-2.9z" class="st4 kSpqFtUp_23" id="XMLID_19_"/>
  <path d="m339.5,275.5c-5.2,13.8 -10.4,27.6 -15.8,41.7c-5.3,-14.1 -10.5,-27.9 -15.8,-41.6c1.8,-0.6 1.8,-0.6 2.5,1.2c4.1,10.9 8.3,21.8 12.4,32.6c0.2,0.7 0.5,1.3 0.9,2.3c1.2,-3.2 2.3,-6.1 3.4,-8.9c3.3,-8.6 6.6,-17.2 9.8,-25.9c0.5,-1.3 1.1,-1.9 2.6,-1.4z" class="st4 kSpqFtUp_24" id="XMLID_17_"/>
  <path d="m231.8,317c-1.6,0.4 -2.6,0.3 -3.7,-0.9c-5.7,-6.5 -11.5,-12.9 -17.3,-19.3c-0.3,-0.4 -0.7,-0.8 -1.1,-1.3c2,-2.2 3.9,-4.3 5.9,-6.5c3.5,-3.9 7,-7.7 10.5,-11.7c1.1,-1.2 2.1,-1.5 3.3,-1.2c-5.6,6.4 -11.2,12.8 -16.7,19c6.4,7.3 12.7,14.5 19.1,21.9z" class="st4 kSpqFtUp_25" id="XMLID_13_"/>
  <path d="m207.5,276.5l0,40.6c0,0 -0.1,0 -0.2,0s-0.2,0 -0.3,0c-0.3,0 -0.6,0 -1,0c-0.2,0 -0.3,0 -0.5,0l0,-40.7l2,0l0,0.1z" class="st4 kSpqFtUp_26" id="XMLID_15_"/>
  <path fill="none" stroke-width="6" stroke-dasharray="null" stroke-linejoin="null" stroke-linecap="null" id="svg_10" stroke="#ef9235" d="m86.00001,119.99999l274.99997,-1" class="kSpqFtUp_27"/>
  <path fill="none" stroke-width="5" stroke-dasharray="null" stroke-linejoin="null" stroke-linecap="null" id="svg_39" stroke="#ef9235" d="m141.99999,118l86.00001,-44" class="kSpqFtUp_28"/>
  <path fill="none" stroke-width="6" stroke-dasharray="null" stroke-linejoin="null" stroke-linecap="null" id="svg_40" stroke="#ef9235" d="m314,120l-88,-46" class="kSpqFtUp_29"/>
  <path fill="none" stroke-width="6" stroke-dasharray="null" stroke-linejoin="null" stroke-linecap="null" id="svg_41" stroke="#ef9235" d="m173,244l0,-123" class="kSpqFtUp_30"/>
  <path fill="none" stroke-width="6" stroke-dasharray="null" stroke-linejoin="null" stroke-linecap="null" id="svg_42" stroke="#ef9235" d="m207,244l0,-124" class="kSpqFtUp_31"/>
  <path fill="none" stroke-width="6" stroke-dasharray="null" stroke-linejoin="null" stroke-linecap="null" id="svg_43" stroke="#ef9235" d="m242,246l0,-126" class="kSpqFtUp_32"/>
  <path fill="none" stroke-width="6" stroke-dasharray="null" stroke-linejoin="null" stroke-linecap="null" id="svg_47" stroke="#ef9235" d="m279,245l0,-125" class="kSpqFtUp_33"/>
 </g>
 <style>.kSpqFtUp_0{stroke-dasharray:1866 1868;stroke-dashoffset:1867;animation:kSpqFtUp_draw 1666ms linear 0ms forwards;}.kSpqFtUp_1{stroke-dasharray:724 726;stroke-dashoffset:725;animation:kSpqFtUp_draw 1666ms linear 25ms forwards;}.kSpqFtUp_2{stroke-dasharray:940 942;stroke-dashoffset:941;animation:kSpqFtUp_draw 1666ms linear 50ms forwards;}.kSpqFtUp_3{stroke-dasharray:739 741;stroke-dashoffset:740;animation:kSpqFtUp_draw 1666ms linear 75ms forwards;}.kSpqFtUp_4{stroke-dasharray:1779 1781;stroke-dashoffset:1780;animation:kSpqFtUp_draw 1666ms linear 101ms forwards;}.kSpqFtUp_5{stroke-dasharray:0 2;stroke-dashoffset:1;animation:kSpqFtUp_draw 1666ms linear 126ms forwards;}.kSpqFtUp_6{stroke-dasharray:2210 2212;stroke-dashoffset:2211;animation:kSpqFtUp_draw 1666ms linear 151ms forwards;}.kSpqFtUp_7{stroke-dasharray:214 216;stroke-dashoffset:215;animation:kSpqFtUp_draw 1666ms linear 176ms forwards;}.kSpqFtUp_8{stroke-dasharray:165 167;stroke-dashoffset:166;animation:kSpqFtUp_draw 1666ms linear 202ms forwards;}.kSpqFtUp_9{stroke-dasharray:87 89;stroke-dashoffset:88;animation:kSpqFtUp_draw 1666ms linear 227ms forwards;}.kSpqFtUp_10{stroke-dasharray:115 117;stroke-dashoffset:116;animation:kSpqFtUp_draw 1666ms linear 252ms forwards;}.kSpqFtUp_11{stroke-dasharray:195 197;stroke-dashoffset:196;animation:kSpqFtUp_draw 1666ms linear 277ms forwards;}.kSpqFtUp_12{stroke-dasharray:171 173;stroke-dashoffset:172;animation:kSpqFtUp_draw 1666ms linear 303ms forwards;}.kSpqFtUp_13{stroke-dasharray:212 214;stroke-dashoffset:213;animation:kSpqFtUp_draw 1666ms linear 328ms forwards;}.kSpqFtUp_14{stroke-dasharray:51 53;stroke-dashoffset:52;animation:kSpqFtUp_draw 1666ms linear 353ms forwards;}.kSpqFtUp_15{stroke-dasharray:41 43;stroke-dashoffset:42;animation:kSpqFtUp_draw 1666ms linear 378ms forwards;}.kSpqFtUp_16{stroke-dasharray:216 218;stroke-dashoffset:217;animation:kSpqFtUp_draw 1666ms linear 404ms forwards;}.kSpqFtUp_17{stroke-dasharray:107 109;stroke-dashoffset:108;animation:kSpqFtUp_draw 1666ms linear 429ms forwards;}.kSpqFtUp_18{stroke-dasharray:335 337;stroke-dashoffset:336;animation:kSpqFtUp_draw 1666ms linear 454ms forwards;}.kSpqFtUp_19{stroke-dasharray:213 215;stroke-dashoffset:214;animation:kSpqFtUp_draw 1666ms linear 479ms forwards;}.kSpqFtUp_20{stroke-dasharray:213 215;stroke-dashoffset:214;animation:kSpqFtUp_draw 1666ms linear 505ms forwards;}.kSpqFtUp_21{stroke-dasharray:212 214;stroke-dashoffset:213;animation:kSpqFtUp_draw 1666ms linear 530ms forwards;}.kSpqFtUp_22{stroke-dasharray:193 195;stroke-dashoffset:194;animation:kSpqFtUp_draw 1666ms linear 555ms forwards;}.kSpqFtUp_23{stroke-dasharray:165 167;stroke-dashoffset:166;animation:kSpqFtUp_draw 1666ms linear 580ms forwards;}.kSpqFtUp_24{stroke-dasharray:171 173;stroke-dashoffset:172;animation:kSpqFtUp_draw 1666ms linear 606ms forwards;}.kSpqFtUp_25{stroke-dasharray:115 117;stroke-dashoffset:116;animation:kSpqFtUp_draw 1666ms linear 631ms forwards;}.kSpqFtUp_26{stroke-dasharray:86 88;stroke-dashoffset:87;animation:kSpqFtUp_draw 1666ms linear 656ms forwards;}.kSpqFtUp_27{stroke-dasharray:276 278;stroke-dashoffset:277;animation:kSpqFtUp_draw 1666ms linear 681ms forwards;}.kSpqFtUp_28{stroke-dasharray:97 99;stroke-dashoffset:98;animation:kSpqFtUp_draw 1666ms linear 707ms forwards;}.kSpqFtUp_29{stroke-dasharray:100 102;stroke-dashoffset:101;animation:kSpqFtUp_draw 1666ms linear 732ms forwards;}.kSpqFtUp_30{stroke-dasharray:123 125;stroke-dashoffset:124;animation:kSpqFtUp_draw 1666ms linear 757ms forwards;}.kSpqFtUp_31{stroke-dasharray:124 126;stroke-dashoffset:125;animation:kSpqFtUp_draw 1666ms linear 782ms forwards;}.kSpqFtUp_32{stroke-dasharray:126 128;stroke-dashoffset:127;animation:kSpqFtUp_draw 1666ms linear 808ms forwards;}.kSpqFtUp_33{stroke-dasharray:125 127;stroke-dashoffset:126;animation:kSpqFtUp_draw 1666ms linear 833ms forwards;}@keyframes kSpqFtUp_draw{100%{stroke-dashoffset:0;}}@keyframes kSpqFtUp_fade{0%{stroke-opacity:1;}94.02985074626866%{stroke-opacity:1;}100%{stroke-opacity:0;}}</style>
</svg>