<?xml version="1.0" encoding="utf-8"?>
<!-- Generator: Adobe Illustrator 21.1.0, SVG Export Plug-In . SVG Version: 6.00 Build 0)  -->
<svg version="1.1" id="Layer_1" xmlns="http://www.w3.org/2000/svg" xmlns:xlink="http://www.w3.org/1999/xlink" x="0px" y="0px"
	 viewBox="0 0 483.8 526.8" style="enable-background:new 0 0 483.8 526.8;" xml:space="preserve">
<style type="text/css">
	.st0{fill:#226BB4;}
	.st1{fill:#FFFFFF;}
	.st2{fill:#2CA9E1;}
	.st3{fill:#AAAAAA;}
	.st4{fill:#FFFFFF;stroke:#FFFFFF;stroke-miterlimit:10;}
</style>
<g>
	<g id="XMLID_1_">
		<path id="XMLID_188_" class="st0" d="M483.8,113.8c0,123,0,245.7,0,368.7c-161.3,0-322.6,0-483.8,0c0-123,0-245.7,0-368.7
			c11,0,21.9-0.2,32.7,0.2c3.7,0.2,5.7-1.3,7.2-4c16.8-27.5,39.4-49.7,65.7-68.1c17.2-12,35.9-21.5,55.7-28.2
			c13.2-4.5,26.9-7.6,40.7-10.5c10.6-2.2,39.4-3.8,51.8-3.1c17.5,1,54.9,7.4,73.5,14.7c28.5,10,55.1,27,77.5,47.4
			c15.5,14.2,29.5,29.9,40.5,48c1,1.8,4,3.3,6.2,3.3C462.3,114,473.1,113.8,483.8,113.8z M434.3,113.7c-16.7-25.4-37.4-46-61.6-62.9
			C325,17.7,271.6,6.2,214.4,12.4c-33,3.7-64.1,14.3-92.4,32c-28.5,17.9-52.1,40.7-71.6,69.1C179,113.7,306.1,113.7,434.3,113.7z
			 M94.1,398.3c0-66.9,0-133,0-199.2c-26,0-51.7,0-77.4,0c-0.7,1.7-1.3,3.3-1.7,4.8c-3,20.5-3.3,41-1.3,61.6
			c1.8,18.2,5.7,35.9,11.7,53.2c10,28.7,26,53.7,46,76.4c1.2,1.3,3.3,2.7,5.2,2.8C82.2,398.6,88.1,398.3,94.1,398.3z M390.9,199.3
			c0,66.6,0,132.8,0,198.7c17.9,1.7,18.4,1.8,26.9-8c18.2-20.5,31.7-43.7,41.2-69.6c7.2-19.2,11-39,13-59.2
			c1.3-13.3,0.7-26.9,0.2-40.2c-0.3-7.3-2.2-14.7-3.3-21.9C442.3,199.3,416.9,199.3,390.9,199.3z M106.6,410.1
			c-2.7,11-0.8,19.7,10.3,24.4c2,0.8,3.8,2.2,5.8,3.5c30.5,19.9,64.4,29.7,100.3,32.9c21.5,1.8,43.5,1.2,64.9-3.3
			c32-6.8,62.1-18.9,88.4-38.9c1.2-0.8,2.3-2.5,2.5-3.8c0.3-4.7,0.2-9.5,0.2-14.3C287.8,410.1,197.4,410.1,106.6,410.1z
			 M274.6,199.3c0,66.6,0,132.6,0,198.5c17.4,0,34.4,0,51.2,0c0-66.4,0-132.5,0-198.5C308.6,199.3,291.8,199.3,274.6,199.3z
			 M212.4,199.3c0,66.6,0,132.6,0,198.5c17,0,33.5,0,50,0c0-66.4,0-132.3,0-198.5C245.6,199.3,229.2,199.3,212.4,199.3z
			 M378.7,199.4c-13.8,0-27.4,0-40.7,0c0,66.6,0,132.6,0,198.7c13.8,0,27.2,0,40.7,0C378.7,331.7,378.7,265.8,378.7,199.4z
			 M159.3,199.3c0,66.6,0,132.6,0,198.5c13.8,0,27.4,0,40.9,0c0-66.4,0-132.3,0-198.5C186.5,199.3,173.2,199.3,159.3,199.3z
			 M106.3,398c14,0,27.5,0,41,0c0-66.4,0-132.3,0-198.5c-13.8,0-27.2,0-41,0C106.3,265.7,106.3,331.6,106.3,398z M129.1,187.2
			c76.4,0,151.6,0,227.9,0c-2.3-1.5-3.7-2.5-5-3.2c-35.2-18.4-70.6-36.7-105.9-54.7c-1.7-0.8-4.3-0.8-6,0c-8.5,4.2-16.7,8.8-25,13
			c-26.7,13.7-53.2,27.4-79.9,41C133.3,184.2,131.6,185.4,129.1,187.2z M94.4,470.7c0-12.3,0.2-24-0.2-35.7c0-1.7-1-3.7-2.2-4.8
			c-6.2-5.8-12.5-11.5-19.2-16.8c-2.2-1.7-5.2-3.2-7.8-3.3c-16-0.3-32.2-0.2-48.4-0.2c-1.7,0-3.3,0.2-4.8,0.3c0,20.5,0,40.5,0,60.6
			C39.5,470.7,66.7,470.7,94.4,470.7z M472,470.7c0-20.5,0-40.5,0-60.9c-18.4,0-36.4,0-54.4,0.2c-1.7,0-3.5,1.3-4.8,2.5
			c-6.7,5.8-13.3,11.7-20,17.7c-1,1-2.2,2.5-2.2,3.7c-0.2,12.2-0.2,24.4-0.2,36.9C417.9,470.7,444.8,470.7,472,470.7z M390.9,125.4
			c0,21.2,0,41.5,0,61.9c25.4,0,50.4,0,75.4,0c-4-19.9-11.5-37.9-20.7-55.4c-1.3-2.5-4-6.2-6.2-6.2
			C423.4,125,407.4,125.4,390.9,125.4z M94.3,125.4c-16.5,0-32.7-0.2-48.7,0.2c-1.5,0-3.7,1.8-4.5,3.3
			c-10.2,18.4-18.2,37.5-22.4,58.4c25.4,0,50.4,0,75.6,0C94.3,166.6,94.3,146.4,94.3,125.4z M219,126.5c-0.2-0.3-0.2-0.5-0.3-0.8
			c-37.5,0-74.9,0-112.6,0c0,19.9,0,39.2,0,59.6C144.1,165.4,181.7,146,219,126.5z M267.3,125.5c-0.2,0.3-0.3,0.7-0.3,1
			c37,19.4,74.1,38.5,111.6,58.1c0-20.2,0-39.5,0-59.1C341.2,125.5,304.3,125.5,267.3,125.5z M11.8,315.4c0,27.5,0,55.1,0,82.6
			c15.7,0,30.9,0,46.7,0C37.7,372.9,22.5,345.6,11.8,315.4z M472.3,398.1c0-13.8,0-27.2,0-40.7c0-13.2,0-26.4,0-39.7
			c-10.8,29.4-25.7,55.9-45.9,80.2C441.9,398.1,456.8,398.1,472.3,398.1z M164.2,470.7c-18.7-9.2-38.4-18.9-57.7-28.2
			c0,9,0,18.5,0,28.2C126.5,470.7,146.1,470.7,164.2,470.7z M321.3,470.5c17.7,0,37.5,0,57.4,0c0-9.8,0-19.4,0-28
			C359,452,339.3,461.7,321.3,470.5z M29.5,125.7c-6,0-11.8,0-17.9,0c0,14,0,27.5,0,41.9C17.9,153.2,23.7,139.5,29.5,125.7z
			 M472.1,125.5c-5.8,0-11.2,0-16.8,0c5.7,13.2,11.2,25.9,16.8,38.9C472.1,151.7,472.1,139,472.1,125.5z M94.1,416.6
			c0-2.7,0-4.5,0-6.3c-2.7,0-4.8,0-8.5,0C89.1,413,91.4,414.6,94.1,416.6z M390.7,410c0,2.3,0,4.2,0,6.7c2.8-2.3,5.2-4.2,8.5-6.7
			C395.5,410,393.4,410,390.7,410z"/>
		<path id="XMLID_16_" class="st1" d="M472.1,164.4c-5.7-12.8-11.2-25.7-16.8-38.9"/>
	</g>
	<g>
		<path id="XMLID_48_" class="st2" d="M449.6,467.9h-30.4c0,0,0,0.3,0,0c0,0.3,0,0,0,1.4h30.6C449.9,467.9,449.8,468.2,449.6,467.9z
			 M446.1,466.5h-27c0,0,0-0.1,0,0h27.1C446.2,466.2,446.1,466.5,446.1,466.5z M408.5,467.9c0.8-1.4,1.7-4.7,2.5-7.2
			C410.2,463.2,409.4,466.5,408.5,467.9L408.5,467.9z M326.1,451.2c0-0.1,0-0.4,0-0.6c0,0.1,0,0.3,0,0.4V451.2z M323.6,414.5
			c0,8.9,0.5,17.9,0.3,26.8c-0.1,4.7-0.4,9.6-1.4,14c-1.6,7-5.9,10.8-11.8,11.3c5.9-0.4,10.3-4.3,12-11.3c1-4.6,1.8-9.3,2-14
			c0.3-8.9,0.4-17.9,0.4-26.8v-2.2h-1.3v2.2H323.6z M304.8,469c-0.8-0.3-1.7-0.6-2.4-1C303.1,468.5,304,468.7,304.8,469
			c6,1.8,11.4,0.6,15.2-3.5C316.2,469.6,310.8,471,304.8,469z M215,469.6c1.3,0,1,0,1.3,0v-55.9H215V469.6z M102.3,469.3v1.4h31.2
			c-0.1-1.4-0.1-1.1-0.3-1.4H102.3z M129.8,466.5c-1.8-4.7-3.5-9.6-5.4-14.6c1.7,4.7,3.4,9.6,5.1,14.6H129.8z M112.8,419.4
			c2.9,8.1,5.6,15.8,8.5,23.6c-2.7-7.9-5.6-16-8.5-24c-0.4,1-0.8,1.7-1,2.4c-5.5,15.3-11,30.6-16.4,45.9c-0.3,0.7-0.5,1.3-0.9,1.7
			c-0.1,0.1-0.1,0.1-0.3,0.3c-0.1,0.1-0.4,0.3-0.7,0.3c-0.4,0.1-0.9,0-1.7-0.3l0,0c2,0.8,2.7-0.1,3.4-1.9
			c5.4-15.3,10.9-30.6,16.4-45.7C112.2,420.9,112.4,420.4,112.8,419.4z M99.7,447.6c-2.6,7.2-5.1,14.7-7.7,21.7l0,0
			C94.6,462.3,97.2,454.8,99.7,447.6z M67,437.3H40.8v-26.4h-2.6v58.7c1.3-0.1,2.6-0.1,2.6-0.1v-29.3H67v29.2h2.6v-58.4H67V437.3z"
			/>
		<path id="XMLID_65_" class="st3" d="M431.8,382.8l-380.1,0.3l-41,14.9v84.2l41.4,14.9h379.5l41.4-14.9V398L431.8,382.8z
			 M69.6,469.3H67v-29.2H40.8v29.3c0,0-1.3,0.1-2.6,0.1v-58.7h2.6v26.4H67v-26.4h2.6V469.3z M133.5,470.7h-31.2v-1.4l0,0v-2.8h27.2
			c-1.7-5-3.4-9.7-5.1-14.6c-0.1-0.4-0.3-1-0.5-1.4c-0.5-1.5-1-3.1-1.6-4.6c-0.4-1-0.7-1.9-1-2.9c-2.7-7.9-5.6-15.7-8.5-23.6
			c-0.4,1-0.8,1.5-1,2.2c-5.5,15.3-11,30.4-16.4,45.7c-0.7,1.9-1.4,2.8-3.4,1.9l0,0l0,0l0,0l0,0c2.6-7,5.1-14.5,7.7-21.7
			c4.3-12,8.6-24.2,13-36.4c7.1,19.7,13.9,38.6,20.7,58.1h-0.3C133.4,469.6,133.4,469.3,133.5,470.7z M157.7,445.4
			c0.3,3.5,0.7,7.1,1.4,10.6c1.4,6.4,5.1,10.4,10.7,11.1c3.4,0.4,7.1,0.4,10.5-0.4c2.6-0.6,5-2.6,7.9-4.3c0.1,0.1,0.5,0.7,1.2,1.3
			c-1.8,3.1-4.5,4.7-7.5,5.7c-4.8,1.5-9.8,1.7-14.7,0c-4.7-1.5-8.1-5-9.8-10.6c-2.7-8.8-2.7-17.9-1.8-27c0.3-2.5,0.8-5,1.3-7.5
			c2-7.5,6.4-11.7,12.8-12.8c5.1-0.8,10.2-0.7,14.9,2.1c1.7,1,3.1,2.5,5,4c-0.9,0.8-1.4,1.4-2.1,1.9c-5-6.1-11.4-6.1-17.9-5.1
			c-5.5,0.8-8.9,4.7-10.5,11C157.5,432,157.3,438.7,157.7,445.4z M218.9,469.4c-0.4,0-0.7,0-0.9,0c-0.1,0-0.3,0-0.4,0
			c-0.3,0-0.7,0-1.3,0.1l0,0c-0.3,0,0,0-1.3,0v-55.9h1.3v-1.4h2.6V469.4z M245.3,467.9c-7.5-9-15.1-17.9-22.7-26.8
			c-0.4-0.6-0.9-1.1-1.4-1.8c2.6-3.1,5.1-6,7.7-9c4.6-5.4,9.2-10.7,13.7-16.3c1.4-1.7,2.7-2.1,4.3-1.7c-7.3,8.9-14.7,17.8-21.9,26.4
			c8.4,10.1,16.6,20.2,25.1,30.4C248.1,469.8,246.7,469.6,245.3,467.9z M326.3,412L326.3,412c0,12.9,0,25.7,0,38.5l0,0
			c0,0.1,0,0.4,0,0.6c-0.1,1.4-0.5,2.8-0.9,4.2c-1,4.3-2.9,7.8-5.4,10.3c-3.8,4-9.2,5.3-15.2,3.5c-0.8-0.3-1.7-0.6-2.4-1
			c-0.5-0.3-1-0.6-1.4-0.8c-0.3-0.1-0.5-0.3-0.7-0.6c-0.4-0.4-0.9-0.7-1.3-1.1c-0.7-0.7-1.2-1.3-1.7-2.1c-0.1-0.3-0.4-0.6-0.5-0.7
			l0,0c-0.1-0.3-0.4-0.6-0.5-0.8c-0.1-0.3-0.3-0.6-0.4-0.8c-0.3-0.6-0.5-1.1-0.8-1.8c-2.1-5.4-2.7-11.1-2.9-17
			c-0.1-9.9-0.1-19.6-0.1-29.3v-0.3c0-0.1,0-0.3,0.1-0.3v-0.1c0-0.1,0-0.1,0-0.3c0,0,0,0,0-0.1s0-0.4,0-0.8h2.4v3.5
			c0,9.5-0.1,18.9,0.1,28.4c0.1,4.2,0.7,8.5,1.6,12.5c1.7,7,5.9,10.8,11.8,11.4c0.4,0,0.8,0,1,0c0.5,0,0.9,0,1.3,0
			c5.9-0.4,10.3-4.3,11.9-11.3c1-4.6,1.2-9.3,1.3-14c0.3-8.9-0.3-17.9-0.3-26.8v-2.4h1.3v-1.4h1.7c0,0.4,0.1,0.7,0.1,0.8
			C326.5,411.7,326.3,411.7,326.3,412l-0.3-0.3v0.3H326.3z M370.4,469.7c-6.9-19.6-13.7-38.8-20.7-57.8c2.4-0.8,2.4-0.8,3.3,1.7
			c5.4,15.2,10.9,30.3,16.2,45.3c0.3,1,0.7,1.8,1.2,3.2c1.6-4.4,3-8.5,4.5-12.4c4.3-12,8.6-23.9,12.8-36c0.7-1.9,1.4-2.8,3.4-1.9
			C384.3,430.8,377.5,450,370.4,469.7z M449.9,469.3h-30.6c0-1.4,0-1.1,0-1.4c0-0.3,0-0.7,0-1.1v-0.3l0,0c0-0.1,0,0,0,0h27
			c-5.6-16.7-11.1-31.8-16.8-47.7c-0.5,1.3-0.8,1.7-1,2.5c-5.4,15.2-10.9,30-16.2,45.2c-0.7,1.8-1.3,2.5-3.4,1.7v-0.4l0,0
			c0.8-1.4,1.7-4.4,2.6-7c0.8-2.4,1.7-4.7,2.6-7.1c5.1-14.5,10.3-29.1,15.6-43.9c3.4,9.5,6.7,19,10,28.4c0.5,1.7,1.2,3.2,1.7,4.9
			c0.7,1.9,1.4,3.9,2.1,5.8c0.1,0.4,0.4,1,0.5,1.4c2.1,6,4.3,11.8,6.4,17.5H450C449.8,468.2,449.9,467.9,449.9,469.3z"/>
		<path id="XMLID_57_" class="st2" d="M133.5,469.3h-31.2v-2.8h27.5c-1.8-4.7-3.5-9.6-5.4-14.6c-0.1-0.4-0.3-1-0.5-1.4
			c-0.5-1.5-1-3.1-1.6-4.6c-0.4-1-0.7-1.9-1-2.9c-2.7-7.9-5.6-16-8.5-24c-0.4,1-0.8,1.7-1,2.4c-5.5,15.3-11,30.6-16.4,45.9
			c-0.3,0.7-0.5,1.3-0.9,1.7c-0.1,0.1-0.1,0.1-0.3,0.3c-0.1,0.1-0.4,0.3-0.7,0.3c-0.4,0.1-0.9,0-1.6-0.3l0,0l0,0
			c2.6-7,5.1-14.5,7.7-21.7c4.3-12,8.6-24.2,13-36.4C119.8,430.9,126.6,449.8,133.5,469.3z"/>
		<path id="XMLID_24_" class="st2" d="M188.2,462.5c0.1,0.1,0.5,0.7,1.2,1.3c-1.8,3.1-4.5,4.7-7.5,5.7c-4.8,1.5-9.8,1.7-14.7,0
			c-4.7-1.5-8.1-5-9.8-10.6c-2.7-8.8-2.7-17.9-1.8-27c0.3-2.5,0.8-5,1.3-7.5c2-7.5,6.4-11.7,12.8-12.8c5.1-0.8,10.2-0.7,14.9,2.1
			c1.7,1,3.1,2.5,5,4c-0.9,0.8-1.4,1.4-2.1,1.9c-5-6.1-11.4-6.1-17.9-5.1c-5.5,0.8-8.9,4.7-10.5,11c-1.7,6.4-2,13.1-1.4,19.7
			c0.3,3.5,0.7,7.1,1.4,10.6c1.4,6.4,5.1,10.4,10.7,11.1c3.4,0.4,7.1,0.4,10.5-0.4C183,466.1,185.4,464,188.2,462.5z"/>
		<path id="XMLID_35_" class="st2" d="M218.9,412.3v57.1c-0.4,0-0.7,0-0.9,0c-0.1,0-0.3,0-0.4,0c-0.3,0-0.7,0-1.3,0.1v-57.3H218.9z"
			/>
		<path id="XMLID_22_" class="st2" d="M250.1,469.3c-2.1,0.6-3.4,0.4-4.8-1.3c-7.5-9-15.1-17.9-22.7-26.8c-0.4-0.6-0.9-1.1-1.4-1.8
			c2.6-3.1,5.1-6,7.7-9c4.6-5.4,9.2-10.7,13.7-16.3c1.4-1.7,2.7-2.1,4.3-1.7c-7.3,8.9-14.7,17.8-21.9,26.4
			C233.4,449,241.7,459,250.1,469.3z"/>
		<path id="XMLID_36_" class="st2" d="M326.3,411.7v0.3l0,0c0,12.8-0.1,25.7-0.4,38.5c0,0.1,0.1,0.3,0.1,0.4
			c-0.1,1.4-0.4,2.8-0.8,4.2c-2.9,11.4-10.9,16.8-20.6,13.8c-3.1-1-5.5-2.9-7.5-5.6c-0.1-0.3-0.3-0.6-0.5-0.7l0,0
			c-0.1-0.3-0.3-0.6-0.5-0.8c-0.1-0.3-0.3-0.6-0.4-0.8c-0.3-0.6-0.5-1.1-0.8-1.8c-2.1-5.4-2.7-11.1-2.9-17
			c-0.1-9.9-0.1-19.6-0.1-29.3v-0.3c0-0.1,0-0.3,0.1-0.3v-0.1c0,0,0-0.1,0-0.3c0,0,0,0,0-0.1s0-0.4,0-0.8h2.4v3.5
			c0,9.5-0.1,18.9,0.1,28.4c0.1,4.2,0.7,8.5,1.6,12.5c1.7,7,5.9,10.8,11.8,11.4c0.4,0,0.8,0,1,0c0.5,0,0.9,0,1.3,0
			c5.9-0.4,10.3-4.3,11.9-11.3c1-4.6,1.8-9.3,2-14c0.3-8.9,0.3-17.9,0.3-26.8v-3.6h1.7C326.1,411.3,326.3,411.6,326.3,411.7
			c0,0-0.3,0-0.3,0.1C326.5,411.7,326.3,411.6,326.3,411.7z"/>
		<path id="XMLID_21_" class="st2" d="M391.1,411.6c-6.8,19.2-13.6,38.4-20.7,58c-6.9-19.6-13.7-38.8-20.7-57.8
			c2.4-0.8,2.4-0.8,3.3,1.7c5.4,15.2,10.9,30.3,16.2,45.3c0.3,1,0.7,1.8,1.2,3.2c1.6-4.4,3-8.5,4.5-12.4c4.3-12,8.6-23.9,12.8-36
			C388.3,411.7,389.1,410.9,391.1,411.6z"/>
		<path id="XMLID_34_" class="st2" d="M449.9,467.9h-30.6c0,0,0-0.1,0-0.3c0-0.3,0-0.6,0-1v-0.1h27.1c-0.1-0.3-0.1-0.4-0.3-0.7
			c-5.6-16.4-11.1-31.6-16.8-47.4c-0.5,1.3-0.8,1.8-1,2.6c-5.4,15.2-10.9,30.2-16.2,45.3c-0.7,1.8-1.3,2.9-3.4,2.1l0,0
			c0.8-2.4,1.7-4.7,2.5-7.2c0.8-2.4,1.7-4.9,2.6-7.2c5.1-14.5,10.3-29.2,15.6-43.9c3.4,9.5,6.7,18.9,10,28.4
			c0.5,1.7,1.2,3.2,1.7,4.9c0.7,1.9,1.4,3.9,2.1,5.7c0.1,0.4,0.4,1,0.5,1.4C445.7,456.4,447.8,462.2,449.9,467.9z"/>
		<path id="XMLID_32_" class="st4" d="M449.9,468.6h-30.6c0-0.4,0-0.7,0-1s0-0.6,0-1v-0.1c0-0.1,0-0.4,0-0.7h27.1
			c-5.8-16.7-11.3-31.7-17-47.7c-0.5,1.3-0.8,2.1-1,2.9c-5.4,15.2-10.9,30.3-16.2,45.5c-0.7,1.8-1.3,2.1-3.4,2.1l0,0
			c0.8-2.8,1.7-4.9,2.6-7.2c0.8-2.4,1.7-4.9,2.6-7.2c5.1-14.3,10.3-28.9,15.6-43.6c3.4,9.5,6.7,18.8,10,27.9
			c0.5,1.7,1.2,3.2,1.7,4.9c0.7,1.9,1.4,3.9,2.1,5.7c0.1,0.4,0.4,1,0.5,1.4c2.1,5.8,4.1,11.5,6.2,17.5
			C449.8,468.2,449.9,468.3,449.9,468.6z"/>
		<path id="XMLID_33_" class="st4" d="M103,467.2h26.8c-0.1-0.3-0.1-0.4-0.3-0.7c-1.7-5-3.4-9.7-5.1-14.6c-0.1-0.4-0.3-1-0.5-1.4
			c-0.5-1.5-1-3.1-1.6-4.6c-0.4-1-0.7-1.9-1-2.9c-2.7-7.9-5.6-15.7-8.5-23.6c-0.4,1-0.8,1.5-1,2.2c-5.5,15.3-11,30.4-16.4,45.7
			c-0.7,1.9-1.4,2.8-3.4,1.9l0,0l0,0c6.8-19.2,13.6-38.1,20.7-57.7c6.9,19.5,13.7,38.5,20.4,57.7c0.1,0.3,0.1,0.4,0.3,0.7h-30.5
			L103,467.2L103,467.2z"/>
		<path id="XMLID_20_" class="st4" d="M69,410.2V470h-2.6v-29.2H41.5v28.6c-1.3,0-2.6,0.1-2.6,0.1v-59.4h2.6v26.4h24.9v-26.4
			L69,410.2L69,410.2z"/>
		<path id="XMLID_45_" class="st4" d="M326.9,412L326.9,412c0,12.9,0,25.7-1.3,38.5l0,0c0,0.1,0.3,0.4,0.3,0.6
			c-0.1,1.4-0.4,2.8-0.7,4.2c-1,4.3-2.9,7.8-5.2,10.3c-3.8,4-9.2,5.3-15.2,3.5c-0.8-0.3-1.6-0.6-2.4-1c-0.5-0.3-0.9-0.6-1.4-0.8
			c-0.3-0.1-0.4-0.3-0.7-0.6c-0.1-0.1-0.3-0.3-0.4-0.4c-0.1-0.1-0.3-0.3-0.4-0.3c-0.1-0.1-0.3-0.3-0.4-0.4l-0.1-0.1l-0.1-0.1
			c-0.5-0.6-0.9-1.1-1.4-1.8c-0.1-0.3-0.3-0.6-0.5-0.7l0,0c-0.1-0.3-0.3-0.6-0.5-0.8c-0.1-0.3-0.3-0.6-0.4-0.8
			c-0.3-0.6-0.5-1.1-0.8-1.8c-2.1-5.4-2.7-11.1-2.9-17c-0.1-9.9,0-19.6,0-29.3c0-0.1,0-0.4,0-0.7v-0.1c0-0.1,0-0.1,0-0.3
			c0,0,0,0,0-0.1s0-0.1,0-0.1h1.7v2.8c0,9.5,0.1,18.9,0.4,28.4c0.1,4.2,0.8,8.5,1.7,12.5c1.7,7,6,11,11.9,11.4c0.4,0,0.8,0,1,0
			c0.5,0,0.9,0,1.3,0c5.9-0.4,10.3-4.3,11.9-11.3c1-4.6,1.4-9.3,1.6-14c0.3-8.9,0-17.9,0-26.8v-2.9h2.4c0,0,0.1,0,0.1,0.1
			c0,0,0,0,0.1,0.1C326.9,411.9,326.9,411.9,326.9,412z"/>
		<path id="XMLID_19_" class="st4" d="M188.2,462.5c0.1,0.1,0.5,0.7,1.2,1.3c-1.8,3.1-4.5,4.7-7.5,5.7c-4.8,1.5-9.8,1.7-14.7,0
			c-4.7-1.5-8.1-5-9.8-10.6c-2.7-8.8-2.7-17.9-1.8-27c0.3-2.5,0.8-5,1.3-7.5c2-7.5,6.4-11.7,12.8-12.8c5.1-0.8,10.2-0.7,14.9,2.1
			c1.7,1,3.1,2.5,5,4c-0.9,0.8-1.4,1.4-2.1,1.9c-5-6.1-11.4-6.1-17.9-5.1c-5.5,0.8-8.9,4.7-10.5,11c-1.7,6.4-2,13.1-1.4,19.7
			c0.3,3.5,0.7,7.1,1.4,10.6c1.4,6.4,5.1,10.4,10.7,11.1c3.4,0.4,7.1,0.4,10.5-0.4C183,466.1,185.4,464,188.2,462.5z"/>
		<path id="XMLID_17_" class="st4" d="M391.1,411.6c-6.8,19.2-13.6,38.4-20.7,58c-6.9-19.6-13.7-38.8-20.7-57.8
			c2.4-0.8,2.4-0.8,3.3,1.7c5.4,15.2,10.9,30.3,16.2,45.3c0.3,1,0.7,1.8,1.2,3.2c1.6-4.4,3-8.5,4.5-12.4c4.3-12,8.6-23.9,12.8-36
			C388.3,411.7,389.1,410.9,391.1,411.6z"/>
		<path id="XMLID_13_" class="st4" d="M250.1,469.3c-2.1,0.6-3.4,0.4-4.8-1.3c-7.5-9-15.1-17.9-22.7-26.8c-0.4-0.6-0.9-1.1-1.4-1.8
			c2.6-3.1,5.1-6,7.7-9c4.6-5.4,9.2-10.7,13.7-16.3c1.4-1.7,2.7-2.1,4.3-1.7c-7.3,8.9-14.7,17.8-21.9,26.4
			C233.4,449,241.7,459,250.1,469.3z"/>
		<path id="XMLID_15_" class="st4" d="M218.2,413v56.4c0,0-0.1,0-0.3,0c-0.1,0-0.3,0-0.4,0c-0.4,0-0.8,0-1.3,0c-0.3,0-0.4,0-0.7,0
			v-56.6h2.6V413z"/>
	</g>
	<circle id="XMLID_6_" class="st0" cx="271" cy="464.4" r="10.5"/>
	<g>
		<rect x="0" y="478.1" class="st0" width="10.6" height="48.7"/>
		
			<rect x="129.7" y="386.6" transform="matrix(6.123234e-17 -1 1 6.123234e-17 -386.4795 656.4785)" class="st0" width="10.6" height="269.8"/>
	</g>
	<rect x="265.7" y="471.9" class="st0" width="10.6" height="54.9"/>
</g>
</svg>
