<?xml version="1.0" encoding="utf-8"?>
<!-- Generator: Adobe Illustrator 18.0.0, SVG Export Plug-In . SVG Version: 6.00 Build 0)  -->
<!DOCTYPE svg PUBLIC "-//W3C//DTD SVG 1.1//EN" "http://www.w3.org/Graphics/SVG/1.1/DTD/svg11.dtd">
<svg version="1.1" id="Layer_2" xmlns="http://www.w3.org/2000/svg" xmlns:xlink="http://www.w3.org/1999/xlink" x="0px" y="0px"
	 viewBox="1.520777 343.79425 605.001221 71.552856" enable-background="new 1.520777 343.79425 605.001221 71.552856"
	 xml:space="preserve">
<g>
	<g>
		<path fill="#00BCDD" d="M91.177322,370.995087c0-8.714203-2.527206-17.335846-7.243805-24.664307
			c-2.19194-3.405762-7.3181-3.445526-9.264267,0.26825c-1.869743,3.567932,1.256645,6.665192,2.683014,9.746368
			c3.668427,7.924286,4.214897,17.121674,1.519325,25.427002c-0.64373,1.983368-1.466095,3.908447-2.453278,5.745178
			c-0.733887,1.365479-1.744438,3.777985-3.754105,2.855469c-2.131836-0.978607-0.693855-3.024994,0.055794-4.37558
			c1.097343-1.97699,1.976776-4.07428,2.616959-6.242889c2.472786-8.376434,1.251091-17.65152-3.37693-25.066742
			c-2.379486-3.280396-7.536995-2.773682-9.195763,0.952301c-0.770218,1.730103-0.562466,3.767456,0.560539,5.293823
			c1.132271,1.979492,1.923836,4.150513,2.335709,6.39328c0.791878,4.312073,0.171486,8.851746-1.805386,12.768677
			c-0.693645,1.37439-2.191669,2.558441-3.576435,1.083405c-1.281876-1.365448,0.258526-3.182129,0.759434-4.542664
			c1.514275-4.112976,1.27639-8.820648-0.649284-12.757965c-1.45507-2.975128-6.485535-4.446014-8.112061-0.766235
			c-1.044514,2.363037-0.670586,5.55603-0.670162,8.140076c0.000645,3.907806,0.001286,7.815613,0.001926,11.723419
			c0.001503,9.154449,0.00301,18.308899,0.004513,27.463348c0.000267,1.635925,0.000538,3.271881,0.000805,4.907806
			C73.98439,413.226562,91.254082,393.232025,91.177322,370.995087z M87.870041,371.356934
			c-0.091827,19.248413-14.022324,36.394806-32.94162,40.172485c0-14.308777,0-28.617523,0-42.9263
			c0-1.211884-0.155663-2.497375,0.158886-3.672729c0.485775-1.815155,2.415474,0.388031,2.741436,1.196686
			c0.741344,1.839081,0.994312,3.978455,0.8353,5.946075c-0.292717,3.62204-3.729576,7.316467-1.266235,10.816528
			c1.081623,1.536835,2.941036,2.418243,4.815788,2.255371c2.235645-0.194244,3.632305-1.647736,4.588238-3.549438
			c1.96701-3.913116,2.797791-8.350525,2.415939-12.711182c-0.182152-2.080109-0.636009-4.136383-1.355598-6.096863
			c-0.357254-0.973297-0.779724-1.922729-1.2649-2.83905c-0.406898-0.768494-1.068832-1.539215-0.914352-2.466522
			c0.249657-1.678497,2.507278-2.31665,3.534126-0.916962c1.187035,1.933075,2.13176,4.013672,2.807686,6.179016
			c1.302254,4.171814,1.59584,8.644073,0.854324,12.950836c-0.355064,2.062256-0.945862,4.083221-1.757439,6.012024
			c-0.783127,1.861206-2.283394,3.602112-2.77639,5.546875c-0.924088,3.645386,2.331566,7.218811,6.062645,6.563202
			c4.020813-0.706512,5.872887-6.213745,7.109123-9.555298c1.506828-4.072937,2.308685-8.398804,2.367943-12.740906
			c0.059303-4.345062-0.6138-8.696991-2.00425-12.814819c-0.662491-1.961945-1.486183-3.869293-2.460709-5.696472
			c-0.716644-1.343658-2.70665-3.368561-1.741402-4.982635c1.149063-1.921417,3.021187-0.619659,3.847588,0.711853
			c1.191658,1.920013,2.229515,3.935333,3.09877,6.02124c1.666634,3.99939,2.706802,8.253815,3.079803,12.570251
			C87.820724,368.672363,87.836349,370.011566,87.870041,371.356934z"/>
		<path fill="#00BCDD" d="M1.521023,370.995087c0-8.713745,2.528769-17.334503,7.241536-24.664307
			c2.190785-3.407349,7.319819-3.444244,9.264173,0.26825c1.868612,3.567871-1.255005,6.664185-2.680735,9.746368
			c-3.666719,7.926788-4.214386,17.11972-1.518593,25.427002c0.64357,1.983185,1.465432,3.908203,2.451666,5.745178
			c0.731401,1.362335,1.745558,3.780212,3.752554,2.855469c2.130516-0.981689,0.699175-3.022125-0.05291-4.37558
			c-1.098402-1.976685-1.978424-4.074066-2.61883-6.242889c-2.473051-8.375305-1.251856-17.653137,3.377216-25.066742
			c2.377264-3.280914,7.538296-2.772797,9.197079,0.952301c0.769707,1.728546,0.561632,3.766754-0.556738,5.293823
			c-1.135406,1.979034-1.931662,4.14975-2.346447,6.39328c-0.797537,4.313812-0.170277,8.853699,1.81513,12.768677
			c0.696005,1.372437,2.182236,2.559906,3.571383,1.083405c1.284073-1.364838-0.252747-3.182159-0.755222-4.542664
			c-1.517153-4.107819-1.281914-8.824463,0.643562-12.757965c1.456791-2.976074,6.485413-4.444275,8.115448-0.766235
			c1.045906,2.359955,0.669521,5.557587,0.669163,8.140076c-0.000542,3.907806-0.001083,7.815613-0.001625,11.723419
			c-0.00127,9.154449-0.002541,18.308899-0.003811,27.463348c-0.000229,1.635925-0.000458,3.271881-0.000683,4.907806
			C18.709177,413.235291,1.445666,393.227753,1.521023,370.995087z M4.828305,371.356934
			c0.087995,19.250732,14.021317,36.395386,32.941612,40.172485c0-14.308777,0-28.617523,0-42.9263
			c0-1.211243,0.158066-2.498993-0.158264-3.672729c-0.488792-1.81369-2.417191,0.388031-2.743641,1.196686
			c-0.74221,1.838531-0.997807,3.978546-0.837093,5.946075c0.295803,3.621338,3.730534,7.316467,1.267666,10.816528
			c-1.082699,1.538666-2.941147,2.418457-4.817715,2.255371c-2.235035-0.194244-3.627445-1.64917-4.583244-3.549438
			c-1.968245-3.913208-2.803602-8.349457-2.4207-12.711182c0.18261-2.080139,0.637276-4.13623,1.35647-6.096863
			c0.35697-0.973145,0.778831-1.922516,1.263025-2.83905c0.411169-0.77832,1.06172-1.528595,0.924257-2.466522
			c-0.258493-1.679993-2.512291-2.312592-3.544643-0.916962c-1.183464,1.934387-2.127052,4.014526-2.803427,6.179016
			c-1.303879,4.172577-1.600737,8.642975-0.856087,12.950836c0.356487,2.062317,0.948908,4.083069,1.760799,6.012024
			c0.783161,1.860718,2.281385,3.602661,2.774651,5.546875c0.924885,3.645477-2.329767,7.219421-6.061859,6.563202
			c-4.020513-0.70694-5.874333-6.213531-7.110524-9.555298c-1.50666-4.072937-2.307171-8.398956-2.366327-12.740906
			c-0.059198-4.345032,0.613439-8.696899,2.003579-12.814819c0.662325-1.961945,1.485869-3.869293,2.460284-5.696472
			c0.716321-1.343201,2.708728-3.369507,1.740497-4.982635c-1.15102-1.917633-3.02342-0.623535-3.85183,0.711853
			c-1.190992,1.919861-2.227699,3.935272-3.095538,6.02124c-1.664049,3.999817-2.700507,8.254395-3.072032,12.570251
			C4.88264,368.672852,4.888235,370.012787,4.828305,371.356934z"/>
	</g>
	<g>
		<g>
			<g>
				<path fill="#1E252B" d="M367.944611,379.151428c0-10.168396,1.641052-22.175446,13.009827-25.430023
					c5.98111-1.712219,13.905518-1.574585,19.25238,1.942261c4.614655,3.035217,6.233185,8.44809,6.295288,13.727203
					c0.000702,0.119934,0.001404,0.239838,0.002106,0.359772c-3.460724,0-6.921448,0-10.382141,0
					c0-3.119354-0.890045-6.544312-3.715546-8.270172c-1.930237-1.179047-4.27417-1.20636-6.455719-0.930664
					c-3.911285,0.494293-5.552002,3.311401-6.238403,6.961578c-0.619202,3.292877-0.681976,6.69458-0.708557,10.034882
					c-0.029999,3.775238-0.022552,7.595062,0.490356,11.342743c0.531616,3.884766,1.80545,7.925262,6.112488,8.767822
					c2.663391,0.520996,5.63382,0.336792,7.660034-1.661072c2.075439-2.046387,2.847351-5.181335,3.015656-8.003662
					c0.031525-0.528442,0.929504-0.284393,1.389984-0.284393c1.256989,0,2.514008,0,3.771027,0c1.917145,0,3.83432,0,5.751495,0
					c0,5.724854-1.799316,11.575378-6.807739,14.836182c-5.240662,3.411987-12.699768,3.709534-18.618469,2.240845
					c-5.196381-1.289398-9.267487-4.661591-11.396576-9.578705c-1.949066-4.501282-2.34491-9.535828-2.416046-14.385315
					C367.947906,380.264313,367.944611,379.707855,367.944611,379.151428z"/>
			</g>
		</g>
		<path fill="#1E252B" d="M144.582703,362.783539h-14.270844v42.306305h-10.683502v-42.306305h-14.280144v-8.928497
			c6.842346,0,13.684685,0,20.527031,0c4.522751,0,9.045502,0,13.568268,0c1.361298,0,2.722595,0,4.083908,0
			c0.638474,0,1.055283-0.249817,1.055283,0.433868C144.582703,357.120453,144.582703,359.951996,144.582703,362.783539z"/>
		<path fill="#1E252B" d="M191.538132,405.089844h-10.676895v-21.438019h-18.476654v21.438019h-10.674332v-51.234802h10.674332
			v20.943329h18.476654v-20.943329c3.526047,0,7.052094,0,10.57814,0c0.2146,0,0.098755,4.251678,0.098755,4.613556
			c0,9.00174,0,18.003448,0,27.005157C191.538132,392.012451,191.538132,398.551147,191.538132,405.089844z"/>
		<path fill="#1E252B" d="M244.940826,405.089844h-11.136002l-3.217697-9.067932h-19.412079l-3.296768,9.067932H196.74498
			l19.902695-51.234802c1.786377,0,3.572769,0,5.359161,0c0.421844,0,2.885437-0.293884,3.050491,0.130371
			c0.760635,1.954987,1.521286,3.909973,2.281921,5.86496c3.343948,8.594604,6.687912,17.189209,10.03186,25.783844
			C239.894348,392.119415,242.417587,398.604614,244.940826,405.089844z M227.781113,387.586609l-6.713181-18.618774
			c-2.297348,6.206268-4.594711,12.412506-6.892059,18.618774C218.710953,387.586609,223.246033,387.586609,227.781113,387.586609z"
			/>
		<path fill="#1E252B" d="M282.892731,405.089844h-32.706818v-51.234802h10.683502v42.306305c5.814453,0,11.628937,0,17.44339,0
			c1.238281,0,2.476562,0,3.714844,0c0.617126,0,0.865082-0.206329,0.865082,0.433868
			C282.892731,399.426758,282.892731,402.258301,282.892731,405.089844z"/>
		<path fill="#1E252B" d="M338.022827,405.089844h-10.678253v-29.871826L316.9216,394.656342h-7.226166l-10.49408-19.438324
			v29.871826h-10.684723v-51.234802h10.53479l14.242004,27.690735l14.198517-27.690735c3.477814,0,6.955658,0,10.433472,0
			c0.211609,0,0.097412,4.253387,0.097412,4.613556c0,9.00174,0,18.003448,0,27.005157
			C338.022827,392.012451,338.022827,398.551147,338.022827,405.089844z"/>
		<path fill="#1E252B" d="M359.901459,405.089844h-10.675568v-51.234802c3.525604,0,7.051208,0,10.576813,0
			c0.214569,0,0.098755,4.251709,0.098755,4.613556c0,9.00174,0,18.003448,0,27.005157
			C359.901459,392.012451,359.901459,398.551147,359.901459,405.089844z"/>
	</g>
	<g>
		<path fill="#1E252B" d="M452.08493,405.083221h-33.761871v-51.232086h5.844818v46.348846c5.894562,0,11.789154,0,17.683716,0
			c3.06958,0,6.139191,0,9.208801,0c0.509552,0,1.024536-0.23053,1.024536,0.335022
			C452.08493,402.051086,452.08493,403.567169,452.08493,405.083221z"/>
		<path fill="#1E252B" d="M492.708557,405.083221h-6.218536l-4.380646-11.595062h-23.870453l-4.385925,11.595062h-6.180389
			l20.080261-51.232086c0.77002,0,1.540039,0,2.310089,0c0.479248,0,2.217529-0.293823,2.604828,0
			c0.225494,0.171082,0.378265,0.967072,0.476776,1.218842c1.084686,2.772858,2.169342,5.545746,3.254028,8.318604
			c3.493896,8.931763,6.987762,17.863495,10.481659,26.795227C488.823029,395.150299,490.765778,400.11676,492.708557,405.083221z
			 M480.421448,388.744293l-10.119049-27.055298c-3.434418,9.018433-6.868805,18.036865-10.303223,27.055298
			C466.80661,388.744293,473.614014,388.744293,480.421448,388.744293z"/>
		<path fill="#1E252B" d="M537.493225,390.921509c0,6.69989-3.9599,11.823792-10.463501,13.484589
			c-3.10498,0.792908-6.2948,0.677124-9.467957,0.677124c-5.859894,0-11.719757,0-17.57962,0v-51.232086h20.574982
			c6.46875,0,13.28418,2.648071,15.445923,9.261932c2.076843,6.354065-0.911682,13.424011-7.390869,15.617371
			C533.909302,380.547424,537.493225,385.272644,537.493225,390.921509z M530.81958,367.590546
			c0-3.960754-2.155701-6.944824-5.927673-8.17099c-2.229187-0.72464-4.542236-0.682587-6.851807-0.682587
			c-4.070557,0-8.141113,0-12.21167,0v17.778168h14.274902C525.664429,376.515137,530.81958,373.685455,530.81958,367.590546z
			 M531.644409,390.746521c0-4.565735-2.98175-7.929718-7.362427-8.956879c-2.054626-0.481781-4.175171-0.388672-6.26947-0.388672
			c-4.06134,0-8.122711,0-12.184082,0v18.799011h14.852417C526.417664,400.199982,531.644409,396.956146,531.644409,390.746521z"/>
		<path fill="#1E252B" d="M581.111084,390.993835c0,8.323029-6.931213,13.181-14.559937,14.230133
			c-8.319885,1.144226-16.838135-0.625366-23.05896-6.46582c1.336548-1.253235,2.673096-2.5065,4.009644-3.759766
			c4.479553,4.207092,9.860229,5.843414,15.946167,5.601624c4.762207-0.189209,10.379517-2.044922,11.58252-7.268066
			c0.588623-2.555603,0.201477-5.721069-1.516113-7.78714c-1.635986-1.967926-4.043213-2.627075-6.454346-3.031647
			c-2.626526-0.440704-5.271118-0.790497-7.905212-1.183197c-4.855591-0.731598-10.192322-2.498779-12.706604-7.069275
			c-2.522461-4.585297-1.871216-10.931793,1.352722-15.00235c3.457642-4.36557,9.311951-5.828156,14.64679-5.828156
			c6.09613,0,11.566284,1.606995,16.266541,5.586975c-1.249756,1.183563-2.499573,2.367157-3.74939,3.55072
			c-4.106262-3.520447-9.500977-4.875885-14.83905-4.282013c-5.144653,0.572327-9.404846,3.894714-9.404846,9.374329
			c0,8.366028,9.543213,8.676727,15.778564,9.557465c3.860107,0.528717,7.692017,1.508209,10.660339,4.172485
			C579.907715,383.856445,581.111084,387.359741,581.111084,390.993835z"/>
	</g>
	<g>
		<path fill="#1E252B" d="M590.881653,364.560913h-1.844421v-9.215424h-3.130981v-1.586487h8.135315v1.586487
			c-1.041443,0-2.082947,0-3.12439,0c-0.075806,0-0.035522,2.128754-0.035522,2.300629
			C590.881653,359.95105,590.881653,362.255981,590.881653,364.560913z M599.869446,364.560913l-3.01001-8.376038h-0.121094
			l0.089478,1.933777v6.442261h-1.781189v-10.80191h2.800781l2.936279,8.374695l3.040161-8.374695h2.69812v10.80191h-1.902222
			v-6.292206l0.090759-2.053528h-0.120972c-0.649109,1.712891-1.298157,3.425781-1.947266,5.138672
			c-0.353882,0.933838-0.707764,1.867676-1.061646,2.801514C601.311401,364.865845,600.580994,364.560913,599.869446,364.560913z"/>
	</g>
</g>
</svg>
