<?xml version="1.0" encoding="utf-8"?>
<!-- Generator: Adobe Illustrator 19.0.0, SVG Export Plug-In . SVG Version: 6.00 Build 0)  -->
<svg version="1.1" id="Layer_1" xmlns="http://www.w3.org/2000/svg" xmlns:xlink="http://www.w3.org/1999/xlink" x="0px" y="0px"
	 viewBox="0 0 612 792" style="enable-background:new 0 0 612 792;" xml:space="preserve">
<style type="text/css">
	.st0{fill:#EF9235;}
	.st1{fill:#FFFFFF;}
	.st2{fill:#00ADEF;}
	.st3{fill:none;stroke:#EF9235;stroke-width:5;stroke-miterlimit:10;}
	.st4{fill:#FFFFFF;stroke:#FFFFFF;stroke-miterlimit:10;}
</style>
<g id="lKbWxD.tif">
	<g id="XMLID_1_">
		<path id="XMLID_188_" class="st0" d="M460.6,291.4c0,73.7,0,147.3,0,221c-96.7,0-193.4,0-290,0c0-73.7,0-147.3,0-221
			c6.6,0,13.1-0.1,19.6,0.1c2.2,0.1,3.4-0.8,4.3-2.4c10.1-16.5,23.6-29.8,39.4-40.8c10.3-7.2,21.5-12.9,33.4-16.9
			c7.9-2.7,16.2-4.3,24.4-6.3c3.5-0.9,7.2-1.4,10.7-2.1c9,0,18,0,26.9,0c0.8,0.2,1.6,0.5,2.4,0.7c4.1,0.7,8.3,0.9,12.3,2
			c7.9,2.1,15.8,4.4,23.5,7.1c17.1,6,32.3,15.5,45.7,27.7c9.3,8.5,17.7,17.9,24.3,28.8c0.6,1.1,2.4,2,3.7,2
			C447.7,291.5,454.2,291.4,460.6,291.4z M430.9,291.3c-10-15.2-22.4-27.6-36.9-37.7c-28.6-19.8-60.6-26.7-94.9-23
			c-19.8,2.2-38.4,8.6-55.4,19.2c-17.1,10.7-31.2,24.4-42.9,41.4C277.9,291.3,354.1,291.3,430.9,291.3z M227,461.9
			c0-40.1,0-79.7,0-119.4c-15.6,0-31,0-46.4,0c-0.4,1-0.8,2-1,2.9c-1.8,12.3-2,24.6-0.8,36.9c1.1,10.9,3.4,21.5,7,31.9
			c6,17.2,15.6,32.2,27.6,45.8c0.7,0.8,2,1.6,3.1,1.7C219.9,462.1,223.4,461.9,227,461.9z M404.9,342.6c0,39.9,0,79.6,0,119.1
			c10.7,1,11,1.1,16.1-4.8c10.9-12.3,19-26.2,24.7-41.7c4.3-11.5,6.6-23.4,7.8-35.5c0.8-8,0.4-16.1,0.1-24.1
			c-0.2-4.4-1.3-8.8-2-13.1C435.7,342.6,420.5,342.6,404.9,342.6z M234.5,469c-1.6,6.6-0.5,11.8,6.2,14.6c1.2,0.5,2.3,1.3,3.5,2.1
			c18.3,11.9,38.6,17.8,60.1,19.7c12.9,1.1,26.1,0.7,38.9-2c19.2-4.1,37.2-11.3,53-23.3c0.7-0.5,1.4-1.5,1.5-2.3
			c0.2-2.8,0.1-5.7,0.1-8.6C343.1,469,288.9,469,234.5,469z M335.2,342.6c0,39.9,0,79.5,0,119c10.4,0,20.6,0,30.7,0
			c0-39.8,0-79.4,0-119C355.6,342.6,345.5,342.6,335.2,342.6z M297.9,342.6c0,39.9,0,79.5,0,119c10.2,0,20.1,0,30,0
			c0-39.8,0-79.3,0-119C317.8,342.6,308,342.6,297.9,342.6z M397.6,342.7c-8.3,0-16.4,0-24.4,0c0,39.9,0,79.5,0,119.1
			c8.3,0,16.3,0,24.4,0C397.6,422,397.6,382.5,397.6,342.7z M266.1,342.6c0,39.9,0,79.5,0,119c8.3,0,16.4,0,24.5,0
			c0-39.8,0-79.3,0-119C282.4,342.6,274.4,342.6,266.1,342.6z M234.3,461.7c8.4,0,16.5,0,24.6,0c0-39.8,0-79.3,0-119
			c-8.3,0-16.3,0-24.6,0C234.3,382.4,234.3,421.9,234.3,461.7z M248,335.4c45.8,0,90.9,0,136.6,0c-1.4-0.9-2.2-1.5-3-1.9
			c-21.1-11-42.3-22-63.5-32.8c-1-0.5-2.6-0.5-3.6,0c-5.1,2.5-10,5.3-15,7.8c-16,8.2-31.9,16.4-47.9,24.6
			C250.5,333.6,249.5,334.3,248,335.4z M227.2,505.3c0-7.4,0.1-14.4-0.1-21.4c0-1-0.6-2.2-1.3-2.9c-3.7-3.5-7.5-6.9-11.5-10.1
			c-1.3-1-3.1-1.9-4.7-2c-9.6-0.2-19.3-0.1-29-0.1c-1,0-2,0.1-2.9,0.2c0,12.3,0,24.3,0,36.3C194.3,505.3,210.6,505.3,227.2,505.3z
			 M453.5,505.3c0-12.3,0-24.3,0-36.5c-11,0-21.8,0-32.6,0.1c-1,0-2.1,0.8-2.9,1.5c-4,3.5-8,7-12,10.6c-0.6,0.6-1.3,1.5-1.3,2.2
			c-0.1,7.3-0.1,14.6-0.1,22.1C421.1,505.3,437.2,505.3,453.5,505.3z M404.9,298.3c0,12.7,0,24.9,0,37.1c15.2,0,30.2,0,45.2,0
			c-2.4-11.9-6.9-22.7-12.4-33.2c-0.8-1.5-2.4-3.7-3.7-3.7C424.4,298.1,414.8,298.3,404.9,298.3z M227.1,298.3
			c-9.9,0-19.6-0.1-29.2,0.1c-0.9,0-2.2,1.1-2.7,2c-6.1,11-10.9,22.5-13.4,35c15.2,0,30.2,0,45.3,0
			C227.1,323,227.1,310.9,227.1,298.3z M301.9,299c-0.1-0.2-0.1-0.3-0.2-0.5c-22.5,0-44.9,0-67.5,0c0,11.9,0,23.5,0,35.7
			C257,322.3,279.5,310.7,301.9,299z M330.8,298.4c-0.1,0.2-0.2,0.4-0.2,0.6c22.2,11.6,44.4,23.1,66.9,34.8c0-12.1,0-23.7,0-35.4
			C375.1,298.4,353,298.4,330.8,298.4z M177.7,412.2c0,16.5,0,33,0,49.5c9.4,0,18.5,0,28,0C193.2,446.7,184.1,430.3,177.7,412.2z
			 M453.7,461.8c0-8.3,0-16.3,0-24.4c0-7.9,0-15.8,0-23.8c-6.5,17.6-15.4,33.5-27.5,48.1C435.5,461.8,444.4,461.8,453.7,461.8z
			 M269,505.3c-11.2-5.5-23-11.3-34.6-16.9c0,5.4,0,11.1,0,16.9C246.4,505.3,258.2,505.3,269,505.3z M363.2,505.2
			c10.6,0,22.5,0,34.4,0c0-5.9,0-11.6,0-16.8C385.8,494.1,374,499.9,363.2,505.2z M188.3,298.5c-3.6,0-7.1,0-10.7,0
			c0,8.4,0,16.5,0,25.1C181.3,315,184.8,306.8,188.3,298.5z M453.6,298.4c-3.5,0-6.7,0-10.1,0c3.4,7.9,6.7,15.5,10.1,23.3
			C453.6,314.1,453.6,306.5,453.6,298.4z M227,472.9c0-1.6,0-2.7,0-3.8c-1.6,0-2.9,0-5.1,0C224,470.7,225.4,471.7,227,472.9z
			 M404.8,468.9c0,1.4,0,2.5,0,4c1.7-1.4,3.1-2.5,5.1-4C407.7,468.9,406.4,468.9,404.8,468.9z"/>
		<path id="XMLID_16_" class="st1" d="M453.6,321.7c-3.4-7.7-6.7-15.4-10.1-23.3"/>
	</g>
</g>
<path id="XMLID_48_" class="st2" d="M474.2,536H451c0,0,0,0.2,0,0c0,0.2,0,0,0,1h23.4C474.4,536,474.3,536.2,474.2,536z M471.5,535
	h-20.6c0,0,0-0.1,0,0h20.7C471.6,534.8,471.5,535,471.5,535z M442.8,536c0.6-1,1.3-3.4,1.9-5.2C444.1,532.6,443.5,535,442.8,536
	L442.8,536z M379.9,524c0-0.1,0-0.3,0-0.4c0,0.1,0,0.2,0,0.3V524z M378,497.6c0,6.4,0.4,12.9,0.2,19.3c-0.1,3.4-0.3,6.9-1.1,10.1
	c-1.2,5-4.5,7.8-9,8.1c4.5-0.3,7.9-3.1,9.2-8.1c0.8-3.3,1.4-6.7,1.5-10.1c0.2-6.4,0.3-12.9,0.3-19.3V496h-1v1.6H378z M363.6,536.8
	c-0.6-0.2-1.3-0.4-1.8-0.7C362.3,536.4,363,536.6,363.6,536.8c4.6,1.3,8.7,0.4,11.6-2.5C372.3,537.2,368.2,538.2,363.6,536.8z
	 M295,537.2c1,0,0.8,0,1,0V497h-1V537.2z M209,537v1h23.8c-0.1-1-0.1-0.8-0.2-1H209z M230,535c-1.4-3.4-2.7-6.9-4.1-10.5
	c1.3,3.4,2.6,6.9,3.9,10.5H230z M217,501.1c2.2,5.8,4.3,11.4,6.5,17c-2.1-5.7-4.3-11.5-6.5-17.3c-0.3,0.7-0.6,1.2-0.8,1.7
	c-4.2,11-8.4,22-12.5,33c-0.2,0.5-0.4,0.9-0.7,1.2c-0.1,0.1-0.1,0.1-0.2,0.2c-0.1,0.1-0.3,0.2-0.5,0.2c-0.3,0.1-0.7,0-1.3-0.2l0,0
	c1.5,0.6,2.1-0.1,2.6-1.4c4.1-11,8.3-22,12.5-32.9C216.5,502.2,216.7,501.8,217,501.1z M207,521.4c-2,5.2-3.9,10.6-5.9,15.6l0,0
	C203.1,532,205.1,526.6,207,521.4z M182,514h-20v-19h-2v42.2c1-0.1,2-0.1,2-0.1V516h20v21h2v-42h-2V514z"/>
<g id="lKbWxD.tif_2_">
	<g id="XMLID_9_">
		<path class="st0" d="M397.5,333.8c-22.5-11.7-44.7-23.2-66.9-34.8c0-0.2,0.1-0.4,0.2-0.6l-29.1,0.1c0.1,0.2,0.1,0.3,0.2,0.5
			c-22.4,11.7-44.9,23.3-67.7,35.2l-7.1,1.2l-0.1,7.1v126.6l7.5-0.1c54.4,0,108.6,0,163.3,0.2l7-0.3l0.1-7.2V335.4L397.5,333.8z
			 M251.6,333.1c16-8.2,31.9-16.4,47.9-24.6c5-2.5,9.9-5.3,15-7.8c1-0.5,2.6-0.5,3.6,0c21.2,10.8,42.4,21.8,63.5,32.8
			c0.8,0.4,1.6,1,3,1.9H248C249.5,334.3,250.5,333.6,251.6,333.1z M258.9,461.7h-24.6v-119h24.6V461.7z M290.6,461.6h-24.5v-119
			h24.5V461.6z M327.9,461.6h-30v-119h30V461.6z M365.9,461.6h-30.7v-119h30.7V461.6z M397.6,461.8h-24.4V342.7h24.4V461.8z"/>
	</g>
</g>
<g id="lKbWxD.tif_1_">
	<g id="XMLID_7_">
		<path class="st0" d="M458.2,337.2c-2.6-12.1-4.3-15.4-4.3-15.4c-3.9-9-8.3-21.7-16.1-32.4c-7.3-12-15.3-20.3-24.6-28.8
			c-13.4-12.2-28.6-21.7-45.7-27.7c-7.7-2.7-15.6-5-23.5-7.1c-4-1.1-8.2-1.3-12.3-2c-0.8-0.2-1.6-0.5-2.4-0.7h-26.9
			c-3.5,0.7-7.2,1.2-10.7,2.1c-8.2,2-16.5,3.6-24.4,6.3c-11.9,4-23.1,9.7-33.4,16.9c-15.8,11-29.3,24.3-39.4,40.8
			c-0.8,1.4-6.2,9.4-6.2,9.4c-3.5,8.3-7.8,16.2-10.7,25.1c-3.3,10.3-6.7,31.8-6.7,42.8c0,6.1,1.8,25.3,2.8,30.3
			c1.2,6.2,4,15.6,4,15.6c6.4,18.1,15.5,34.5,28,49.5c0,0,7.5,8.3,8.6,9.2c4,3.2,7.8,6.6,11.5,10.1c0.7,0.7,8.6,7.4,8.6,7.4
			c11.6,5.6,23.4,11.4,34.6,16.9l94.2-0.1c10.8-5.3,22.6-11.1,34.4-16.8c0,0,7.8-6.8,8.4-7.4c4-3.6,8-7.1,12-10.6
			c0.8-0.7,7.4-7.8,8.2-8.7c12.1-14.6,21.3-30.5,27.8-48.1c0,0,1.8-4.8,3.6-12.5C461.3,385.6,461.6,353.1,458.2,337.2z M453.5,379.8
			c-1.2,12.1-3.5,24-7.8,35.5c-5.7,15.5-13.8,29.4-24.7,41.7c-3.4,3.9-11.1,12-11.1,12c-2,1.5-3.4,2.6-5.1,4c0,0-7.9,6.7-8.6,7.2
			c-15.8,12-33.8,19.2-53,23.3c-12.8,2.7-26,3.1-38.9,2c-21.5-1.9-41.8-7.8-60.1-19.7c-1.2-0.8-2.3-1.6-3.5-2.1
			C236.3,481.8,227,473,227,473c-1.6-1.2-3-2.2-5.1-3.8c0,0-7.8-8.3-8.5-9.1c-12-13.6-21.6-28.6-27.6-45.8c-3.6-10.4-5.9-21-7-31.9
			c-1.2-12.3-1-24.6,0.8-36.9c0.2-0.9,0.6-1.9,1-2.9l1.2-7.1c2.5-12.5,7.3-24,13.4-35c0.4-0.8,5.8-9.2,5.6-9.2
			c11.7-17,25.8-30.7,42.9-41.4c17-10.6,35.6-17,55.4-19.2c34.3-3.7,66.3,3.2,94.9,23c14.5,10.1,26.9,22.5,36.9,37.7
			c0,0,6.3,9.9,6.8,10.9c5.5,10.5,10,21.3,12.4,33.2c0,0,3.3,15.8,3.5,20.2C453.9,363.7,454.3,371.8,453.5,379.8z"/>
		<path id="XMLID_8_" class="st1" d="M453.6,321.8"/>
	</g>
</g>
<path id="XMLID_65_" class="st2" d="M460.6,474.8L170.3,475L139,485.7v60.6l31.6,10.7h289.8l31.6-10.7v-60.6L460.6,474.8z M184,537
	h-2v-21h-20v21.1c0,0-1,0.1-2,0.1V495h2v19h20v-19h2V537z M232.8,538H209v-1l0,0v-2h20.8c-1.3-3.6-2.6-7-3.9-10.5
	c-0.1-0.3-0.2-0.7-0.4-1c-0.4-1.1-0.8-2.2-1.2-3.3c-0.3-0.7-0.5-1.4-0.8-2.1c-2.1-5.7-4.3-11.3-6.5-17c-0.3,0.7-0.6,1.1-0.8,1.6
	c-4.2,11-8.4,21.9-12.5,32.9c-0.5,1.4-1.1,2-2.6,1.4l0,0l0,0l0,0l0,0c2-5,3.9-10.4,5.9-15.6c3.3-8.6,6.6-17.4,9.9-26.2
	c5.4,14.2,10.6,27.8,15.8,41.8h-0.2C232.7,537.2,232.7,537,232.8,538z M251.3,519.8c0.2,2.5,0.5,5.1,1.1,7.6c1.1,4.6,3.9,7.5,8.2,8
	c2.6,0.3,5.4,0.3,8-0.3c2-0.4,3.8-1.9,6-3.1c0.1,0.1,0.4,0.5,0.9,0.9c-1.4,2.2-3.4,3.4-5.7,4.1c-3.7,1.1-7.5,1.2-11.2,0
	c-3.6-1.1-6.2-3.6-7.5-7.6c-2.1-6.3-2.1-12.9-1.4-19.4c0.2-1.8,0.6-3.6,1-5.4c1.5-5.4,4.9-8.4,9.8-9.2c3.9-0.6,7.8-0.5,11.4,1.5
	c1.3,0.7,2.4,1.8,3.8,2.9c-0.7,0.6-1.1,1-1.6,1.4c-3.8-4.4-8.7-4.4-13.7-3.7c-4.2,0.6-6.8,3.4-8,7.9
	C251.1,510.2,251,515,251.3,519.8z M298,537.1c-0.3,0-0.5,0-0.7,0c-0.1,0-0.2,0-0.3,0c-0.2,0-0.5,0-1,0.1l0,0c-0.2,0,0,0-1,0V497h1
	v-1h2V537.1z M318.2,536c-5.7-6.5-11.5-12.9-17.3-19.3c-0.3-0.4-0.7-0.8-1.1-1.3c2-2.2,3.9-4.3,5.9-6.5c3.5-3.9,7-7.7,10.5-11.7
	c1.1-1.2,2.1-1.5,3.3-1.2c-5.6,6.4-11.2,12.8-16.7,19c6.4,7.3,12.7,14.5,19.2,21.9C320.3,537.4,319.2,537.2,318.2,536z M380,495.8
	L380,495.8c0,9.3,0,18.5,0,27.7l0,0c0,0.1,0,0.3,0,0.4c-0.1,1-0.4,2-0.7,3c-0.8,3.1-2.2,5.6-4.1,7.4c-2.9,2.9-7,3.8-11.6,2.5
	c-0.6-0.2-1.3-0.4-1.8-0.7c-0.4-0.2-0.8-0.4-1.1-0.6c-0.2-0.1-0.4-0.2-0.5-0.4c-0.3-0.3-0.7-0.5-1-0.8c-0.5-0.5-0.9-0.9-1.3-1.5
	c-0.1-0.2-0.3-0.4-0.4-0.5l0,0c-0.1-0.2-0.3-0.4-0.4-0.6c-0.1-0.2-0.2-0.4-0.3-0.6c-0.2-0.4-0.4-0.8-0.6-1.3
	c-1.6-3.9-2.1-8-2.2-12.2c-0.1-7.1-0.1-14.1-0.1-21.1v-0.2c0-0.1,0-0.2,0.1-0.2V496c0-0.1,0-0.1,0-0.2c0,0,0,0,0-0.1s0-0.3,0-0.6
	h1.8v2.5c0,6.8-0.1,13.6,0.1,20.4c0.1,3,0.5,6.1,1.2,9c1.3,5,4.5,7.8,9,8.2c0.3,0,0.6,0,0.8,0c0.4,0,0.7,0,1,0
	c4.5-0.3,7.9-3.1,9.1-8.1c0.8-3.3,0.9-6.7,1-10.1c0.2-6.4-0.2-12.9-0.2-19.3V496h1v-1h1.3c0,0.3,0.1,0.5,0.1,0.6
	C380.2,495.6,380,495.6,380,495.8l-0.2-0.2v0.2H380z M413.7,537.3c-5.3-14.1-10.5-27.9-15.8-41.6c1.8-0.6,1.8-0.6,2.5,1.2
	c4.1,10.9,8.3,21.8,12.4,32.6c0.2,0.7,0.5,1.3,0.9,2.3c1.2-3.2,2.3-6.1,3.4-8.9c3.3-8.6,6.6-17.2,9.8-25.9c0.5-1.4,1.1-2,2.6-1.4
	C424.3,509.3,419.1,523.1,413.7,537.3z M474.4,537H451c0-1,0-0.8,0-1s0-0.5,0-0.8V535l0,0c0-0.1,0,0,0,0h20.6
	c-4.3-12-8.5-22.9-12.8-34.3c-0.4,0.9-0.6,1.2-0.8,1.8c-4.1,10.9-8.3,21.6-12.4,32.5c-0.5,1.3-1,1.8-2.6,1.2v-0.3l0,0
	c0.6-1,1.3-3.2,2-5c0.6-1.7,1.3-3.4,2-5.1c3.9-10.4,7.9-20.9,11.9-31.6c2.6,6.8,5.1,13.7,7.6,20.4c0.4,1.2,0.9,2.3,1.3,3.5
	c0.5,1.4,1.1,2.8,1.6,4.2c0.1,0.3,0.3,0.7,0.4,1c1.6,4.3,3.3,8.5,4.9,12.6h-0.2C474.3,536.2,474.4,536,474.4,537z"/>
<path id="XMLID_57_" class="st2" d="M232.8,537H209v-2h21c-1.4-3.4-2.7-6.9-4.1-10.5c-0.1-0.3-0.2-0.7-0.4-1
	c-0.4-1.1-0.8-2.2-1.2-3.3c-0.3-0.7-0.5-1.4-0.8-2.1c-2.1-5.7-4.3-11.5-6.5-17.3c-0.3,0.7-0.6,1.2-0.8,1.7c-4.2,11-8.4,22-12.5,33
	c-0.2,0.5-0.4,0.9-0.7,1.2c-0.1,0.1-0.1,0.1-0.2,0.2c-0.1,0.1-0.3,0.2-0.5,0.2c-0.3,0.1-0.7,0-1.2-0.2l0,0l0,0
	c2-5,3.9-10.4,5.9-15.6c3.3-8.6,6.6-17.4,9.9-26.2C222.3,509.4,227.5,523,232.8,537z"/>
<path id="XMLID_24_" class="st2" d="M274.6,532.1c0.1,0.1,0.4,0.5,0.9,0.9c-1.4,2.2-3.4,3.4-5.7,4.1c-3.7,1.1-7.5,1.2-11.2,0
	c-3.6-1.1-6.2-3.6-7.5-7.6c-2.1-6.3-2.1-12.9-1.4-19.4c0.2-1.8,0.6-3.6,1-5.4c1.5-5.4,4.9-8.4,9.8-9.2c3.9-0.6,7.8-0.5,11.4,1.5
	c1.3,0.7,2.4,1.8,3.8,2.9c-0.7,0.6-1.1,1-1.6,1.4c-3.8-4.4-8.7-4.4-13.7-3.7c-4.2,0.6-6.8,3.4-8,7.9c-1.3,4.6-1.5,9.4-1.1,14.2
	c0.2,2.5,0.5,5.1,1.1,7.6c1.1,4.6,3.9,7.5,8.2,8c2.6,0.3,5.4,0.3,8-0.3C270.6,534.7,272.4,533.2,274.6,532.1z"/>
<path id="XMLID_35_" class="st2" d="M298,496v41.1c-0.3,0-0.5,0-0.7,0c-0.1,0-0.2,0-0.3,0c-0.2,0-0.5,0-1,0.1V496H298z"/>
<path id="XMLID_22_" class="st2" d="M321.8,537c-1.6,0.4-2.6,0.3-3.7-0.9c-5.7-6.5-11.5-12.9-17.3-19.3c-0.3-0.4-0.7-0.8-1.1-1.3
	c2-2.2,3.9-4.3,5.9-6.5c3.5-3.9,7-7.7,10.5-11.7c1.1-1.2,2.1-1.5,3.3-1.2c-5.6,6.4-11.2,12.8-16.7,19
	C309.1,522.4,315.4,529.6,321.8,537z"/>
<path id="XMLID_36_" class="st2" d="M380,495.6v0.2l0,0c0,9.2-0.1,18.5-0.3,27.7c0,0.1,0.1,0.2,0.1,0.3c-0.1,1-0.3,2-0.6,3
	c-2.2,8.2-8.3,12.1-15.7,9.9c-2.4-0.7-4.2-2.1-5.7-4c-0.1-0.2-0.2-0.4-0.4-0.5l0,0c-0.1-0.2-0.2-0.4-0.4-0.6
	c-0.1-0.2-0.2-0.4-0.3-0.6c-0.2-0.4-0.4-0.8-0.6-1.3c-1.6-3.9-2.1-8-2.2-12.2c-0.1-7.1-0.1-14.1-0.1-21.1v-0.2c0-0.1,0-0.2,0.1-0.2
	v-0.1c0,0,0-0.1,0-0.2c0,0,0,0,0-0.1s0-0.3,0-0.6h1.8v2.5c0,6.8-0.1,13.6,0.1,20.4c0.1,3,0.5,6.1,1.2,9c1.3,5,4.5,7.8,9,8.2
	c0.3,0,0.6,0,0.8,0c0.4,0,0.7,0,1,0c4.5-0.3,7.9-3.1,9.1-8.1c0.8-3.3,1.4-6.7,1.5-10.1c0.2-6.4,0.2-12.9,0.2-19.3V495h1.3
	C379.9,495.3,380,495.5,380,495.6c0,0-0.2,0-0.2,0.1C380.2,495.6,380,495.5,380,495.6z"/>
<path id="XMLID_21_" class="st2" d="M429.5,495.5c-5.2,13.8-10.4,27.6-15.8,41.7c-5.3-14.1-10.5-27.9-15.8-41.6
	c1.8-0.6,1.8-0.6,2.5,1.2c4.1,10.9,8.3,21.8,12.4,32.6c0.2,0.7,0.5,1.3,0.9,2.3c1.2-3.2,2.3-6.1,3.4-8.9c3.3-8.6,6.6-17.2,9.8-25.9
	C427.4,495.6,428,495,429.5,495.5z"/>
<path id="XMLID_34_" class="st2" d="M474.4,536H451c0,0,0-0.1,0-0.2c0-0.2,0-0.4,0-0.7V535h20.7c-0.1-0.2-0.1-0.3-0.2-0.5
	c-4.3-11.8-8.5-22.7-12.8-34.1c-0.4,0.9-0.6,1.3-0.8,1.9c-4.1,10.9-8.3,21.7-12.4,32.6c-0.5,1.3-1,2.1-2.6,1.5l0,0
	c0.6-1.7,1.3-3.4,1.9-5.2c0.6-1.7,1.3-3.5,2-5.2c3.9-10.4,7.9-21,11.9-31.6c2.6,6.8,5.1,13.6,7.6,20.4c0.4,1.2,0.9,2.3,1.3,3.5
	c0.5,1.4,1.1,2.8,1.6,4.1c0.1,0.3,0.3,0.7,0.4,1C471.2,527.7,472.8,531.9,474.4,536z"/>
<circle id="XMLID_6_" class="st0" cx="337.8" cy="525" r="8"/>
<line id="XMLID_5_" class="st3" x1="337.5" y1="529" x2="337.5" y2="570"/>
<line id="XMLID_4_" class="st3" x1="338" y1="567.5" x2="122" y2="567.5"/>
<line id="XMLID_3_" class="st3" x1="122.5" y1="570" x2="122.5" y2="463"/>
<line id="XMLID_2_" class="st3" x1="336" y1="465.5" x2="121" y2="465.5"/>
<path id="XMLID_32_" class="st4" d="M474.4,536.5H451c0-0.3,0-0.5,0-0.7s0-0.4,0-0.7V535c0-0.1,0-0.3,0-0.5h20.7
	c-4.4-12-8.6-22.8-13-34.3c-0.4,0.9-0.6,1.5-0.8,2.1c-4.1,10.9-8.3,21.8-12.4,32.7c-0.5,1.3-1,1.5-2.6,1.5l0,0c0.6-2,1.3-3.5,2-5.2
	c0.6-1.7,1.3-3.5,2-5.2c3.9-10.3,7.9-20.8,11.9-31.4c2.6,6.8,5.1,13.5,7.6,20.1c0.4,1.2,0.9,2.3,1.3,3.5c0.5,1.4,1.1,2.8,1.6,4.1
	c0.1,0.3,0.3,0.7,0.4,1c1.6,4.2,3.1,8.3,4.7,12.6C474.3,536.2,474.4,536.3,474.4,536.5z"/>
<path id="XMLID_33_" class="st4" d="M209.5,535.5H230c-0.1-0.2-0.1-0.3-0.2-0.5c-1.3-3.6-2.6-7-3.9-10.5c-0.1-0.3-0.2-0.7-0.4-1
	c-0.4-1.1-0.8-2.2-1.2-3.3c-0.3-0.7-0.5-1.4-0.8-2.1c-2.1-5.7-4.3-11.3-6.5-17c-0.3,0.7-0.6,1.1-0.8,1.6c-4.2,11-8.4,21.9-12.5,32.9
	c-0.5,1.4-1.1,2-2.6,1.4l0,0l0,0c5.2-13.8,10.4-27.4,15.8-41.5c5.3,14,10.5,27.7,15.6,41.5c0.1,0.2,0.1,0.3,0.2,0.5h-23.3
	L209.5,535.5L209.5,535.5z"/>
<path id="XMLID_20_" class="st4" d="M183.5,494.5v43h-2v-21h-19v20.6c-1,0-2,0.1-2,0.1v-42.7h2v19h19v-19L183.5,494.5L183.5,494.5z"
	/>
<path id="XMLID_45_" class="st4" d="M380.5,495.8L380.5,495.8c0,9.3,0,18.5-1,27.7l0,0c0,0.1,0.2,0.3,0.2,0.4c-0.1,1-0.3,2-0.5,3
	c-0.8,3.1-2.2,5.6-4,7.4c-2.9,2.9-7,3.8-11.6,2.5c-0.6-0.2-1.2-0.4-1.8-0.7c-0.4-0.2-0.7-0.4-1.1-0.6c-0.2-0.1-0.3-0.2-0.5-0.4
	c-0.1-0.1-0.2-0.2-0.3-0.3c-0.1-0.1-0.2-0.2-0.3-0.2c-0.1-0.1-0.2-0.2-0.3-0.3l-0.1-0.1l-0.1-0.1c-0.4-0.4-0.7-0.8-1.1-1.3
	c-0.1-0.2-0.2-0.4-0.4-0.5l0,0c-0.1-0.2-0.2-0.4-0.4-0.6c-0.1-0.2-0.2-0.4-0.3-0.6c-0.2-0.4-0.4-0.8-0.6-1.3
	c-1.6-3.9-2.1-8-2.2-12.2c-0.1-7.1,0-14.1,0-21.1c0-0.1,0-0.3,0-0.5v-0.1c0-0.1,0-0.1,0-0.2c0,0,0,0,0-0.1s0-0.1,0-0.1h1.3v2
	c0,6.8,0.1,13.6,0.3,20.4c0.1,3,0.6,6.1,1.3,9c1.3,5,4.6,7.9,9.1,8.2c0.3,0,0.6,0,0.8,0c0.4,0,0.7,0,1,0c4.5-0.3,7.9-3.1,9.1-8.1
	c0.8-3.3,1.1-6.7,1.2-10.1c0.2-6.4,0-12.9,0-19.3v-2.1h1.8c0,0,0.1,0,0.1,0.1c0,0,0,0,0.1,0.1C380.5,495.7,380.5,495.7,380.5,495.8z
	"/>
<path id="XMLID_19_" class="st4" d="M274.6,532.1c0.1,0.1,0.4,0.5,0.9,0.9c-1.4,2.2-3.4,3.4-5.7,4.1c-3.7,1.1-7.5,1.2-11.2,0
	c-3.6-1.1-6.2-3.6-7.5-7.6c-2.1-6.3-2.1-12.9-1.4-19.4c0.2-1.8,0.6-3.6,1-5.4c1.5-5.4,4.9-8.4,9.8-9.2c3.9-0.6,7.8-0.5,11.4,1.5
	c1.3,0.7,2.4,1.8,3.8,2.9c-0.7,0.6-1.1,1-1.6,1.4c-3.8-4.4-8.7-4.4-13.7-3.7c-4.2,0.6-6.8,3.4-8,7.9c-1.3,4.6-1.5,9.4-1.1,14.2
	c0.2,2.5,0.5,5.1,1.1,7.6c1.1,4.6,3.9,7.5,8.2,8c2.6,0.3,5.4,0.3,8-0.3C270.6,534.7,272.4,533.2,274.6,532.1z"/>
<path id="XMLID_17_" class="st4" d="M429.5,495.5c-5.2,13.8-10.4,27.6-15.8,41.7c-5.3-14.1-10.5-27.9-15.8-41.6
	c1.8-0.6,1.8-0.6,2.5,1.2c4.1,10.9,8.3,21.8,12.4,32.6c0.2,0.7,0.5,1.3,0.9,2.3c1.2-3.2,2.3-6.1,3.4-8.9c3.3-8.6,6.6-17.2,9.8-25.9
	C427.4,495.6,428,495,429.5,495.5z"/>
<path id="XMLID_13_" class="st4" d="M321.8,537c-1.6,0.4-2.6,0.3-3.7-0.9c-5.7-6.5-11.5-12.9-17.3-19.3c-0.3-0.4-0.7-0.8-1.1-1.3
	c2-2.2,3.9-4.3,5.9-6.5c3.5-3.9,7-7.7,10.5-11.7c1.1-1.2,2.1-1.5,3.3-1.2c-5.6,6.4-11.2,12.8-16.7,19
	C309.1,522.4,315.4,529.6,321.8,537z"/>
<path id="XMLID_15_" class="st4" d="M297.5,496.5v40.6c0,0-0.1,0-0.2,0s-0.2,0-0.3,0c-0.3,0-0.6,0-1,0c-0.2,0-0.3,0-0.5,0v-40.7h2
	V496.5z"/>
<g id="lKbWxD.tif_3_">
	<g id="XMLID_10_">
		<path class="st0" d="M405,291.3c-60.9,0-116.7,0-177.8-0.1v44.2l-0.1,7.1v126.6l7.5-0.1c54.4,0,108.6,0,163.3,0.2l7-0.3l0.1-7.2
			V298.3L405,291.3z M397.7,461.8l-163.3-0.1l-0.1-163.2l163.3-0.1L397.7,461.8z"/>
	</g>
</g>
</svg>
