<?xml version="1.0" encoding="utf-8"?>
<!-- Generator: Adobe Illustrator 21.1.0, SVG Export Plug-In . SVG Version: 6.00 Build 0)  -->
<svg version="1.1" id="Layer_1" xmlns="http://www.w3.org/2000/svg" xmlns:xlink="http://www.w3.org/1999/xlink" x="0px" y="0px"
	 viewBox="0 0 483.8 526.8" style="enable-background:new 0 0 483.8 526.8;" xml:space="preserve">
<style type="text/css">
	.st0{fill:#FFFFFF;}
	.st1{fill:#2CA9E1;}
	.st2{fill:#AAAAAA;}
	.st3{fill:#FFFFFF;stroke:#FFFFFF;stroke-miterlimit:10;}
</style>
<g>
	<g id="XMLID_30_">
		<path id="XMLID_37_" class="st0" d="M472,125.2c0,118.7,0,237.2,0,355.9c-155.7,0-311.4,0-467,0c0-118.7,0-237.2,0-355.9
			c10.6,0,21.1-0.2,31.6,0.2c3.5,0.2,5.5-1.3,6.9-3.9c16.3-26.6,38-48,63.4-65.7c16.6-11.6,34.6-20.8,53.8-27.2
			c12.7-4.3,26-7.3,39.3-10.1c10.2-2.2,38.1-3.6,50-3c16.9,0.9,52.9,7.1,70.9,14.2c27.5,9.7,53.2,26.1,74.8,45.7
			c15,13.7,28.5,28.8,39.1,46.4c1,1.8,3.9,3.2,6,3.2C451.3,125.4,461.7,125.2,472,125.2z M424.2,125.1
			c-16.1-24.5-36.1-44.4-59.4-60.7c-46.1-31.9-97.6-43-152.8-37c-31.9,3.5-61.8,13.8-89.2,30.9c-27.5,17.2-50.2,39.3-69.1,66.7
			C177.8,125.1,300.5,125.1,424.2,125.1z M95.9,399.8c0-64.6,0-128.3,0-192.3c-25.1,0-49.9,0-74.7,0c-0.6,1.6-1.3,3.2-1.6,4.7
			c-2.9,19.8-3.2,39.6-1.3,59.4c1.8,17.6,5.5,34.6,11.3,51.4c9.7,27.7,25.1,51.8,44.4,73.7c1.1,1.3,3.2,2.6,5,2.7
			C84.5,400.1,90.1,399.8,95.9,399.8z M382.3,207.7c0,64.2,0,128.2,0,191.8c17.2,1.6,17.7,1.8,25.9-7.7
			c17.6-19.8,30.6-42.2,39.8-67.1c6.9-18.5,10.6-37.7,12.6-57.2c1.3-12.9,0.6-25.9,0.2-38.8c-0.3-7.1-2.1-14.2-3.2-21.1
			C431.9,207.7,407.5,207.7,382.3,207.7z M108,411.2c-2.6,10.6-0.8,19,10,23.5c1.9,0.8,3.7,2.1,5.6,3.4
			c29.5,19.2,62.2,28.7,96.8,31.7c20.8,1.8,42,1.1,62.6-3.2c30.9-6.6,59.9-18.2,85.3-37.5c1.1-0.8,2.3-2.4,2.4-3.7
			c0.3-4.5,0.2-9.2,0.2-13.8C282.8,411.2,195.6,411.2,108,411.2z M270.1,207.7c0,64.2,0,128,0,191.6c16.7,0,33.2,0,49.4,0
			c0-64.1,0-127.8,0-191.6C303,207.7,286.7,207.7,270.1,207.7z M210,207.7c0,64.2,0,128,0,191.6c16.4,0,32.4,0,48.3,0
			c0-64.1,0-127.7,0-191.6C242.1,207.7,226.3,207.7,210,207.7z M370.6,207.8c-13.4,0-26.4,0-39.3,0c0,64.2,0,128,0,191.8
			c13.4,0,26.2,0,39.3,0C370.6,335.5,370.6,271.9,370.6,207.8z M158.8,207.7c0,64.2,0,128,0,191.6c13.4,0,26.4,0,39.4,0
			c0-64.1,0-127.7,0-191.6C185.1,207.7,172.2,207.7,158.8,207.7z M107.6,399.4c13.5,0,26.6,0,39.6,0c0-64.1,0-127.7,0-191.6
			c-13.4,0-26.2,0-39.6,0C107.6,271.7,107.6,335.4,107.6,399.4z M129.7,196.1c73.7,0,146.4,0,220,0c-2.3-1.4-3.5-2.4-4.8-3.1
			c-34-17.7-68.1-35.4-102.2-52.8c-1.6-0.8-4.2-0.8-5.8,0c-8.2,4-16.1,8.5-24.2,12.6c-25.8,13.2-51.4,26.4-77.1,39.6
			C133.7,193.2,132.1,194.3,129.7,196.1z M96.2,469.6c0-11.9,0.2-23.2-0.2-34.5c0-1.6-1-3.5-2.1-4.7c-6-5.6-12.1-11.1-18.5-16.3
			c-2.1-1.6-5-3.1-7.6-3.2c-15.5-0.3-31.1-0.2-46.7-0.2c-1.6,0-3.2,0.2-4.7,0.3c0,19.8,0,39.1,0,58.5
			C43.2,469.6,69.5,469.6,96.2,469.6z M460.6,469.6c0-19.8,0-39.1,0-58.8c-17.7,0-35.1,0-52.5,0.2c-1.6,0-3.4,1.3-4.7,2.4
			c-6.4,5.6-12.9,11.3-19.3,17.1c-1,1-2.1,2.4-2.1,3.5c-0.2,11.8-0.2,23.5-0.2,35.6C408.4,469.6,434.3,469.6,460.6,469.6z
			 M382.3,136.3c0,20.4,0,40.1,0,59.7c24.5,0,48.6,0,72.8,0c-3.9-19.2-11.1-36.6-20-53.5c-1.3-2.4-3.9-6-6-6
			C413.7,136,398.3,136.3,382.3,136.3z M96,136.3c-15.9,0-31.6-0.2-47,0.2c-1.4,0-3.5,1.8-4.3,3.2c-9.8,17.7-17.6,36.2-21.6,56.4
			c24.5,0,48.6,0,72.9,0C96,176.1,96,156.6,96,136.3z M216.5,137.5c-0.2-0.3-0.2-0.5-0.3-0.8c-36.2,0-72.3,0-108.7,0
			c0,19.2,0,37.8,0,57.5C144.2,175,180.4,156.3,216.5,137.5z M263,136.5c-0.2,0.3-0.3,0.6-0.3,1c35.7,18.7,71.5,37.2,107.7,56
			c0-19.5,0-38.2,0-57C334.4,136.5,298.8,136.5,263,136.5z M16.5,319.7c0,26.6,0,53.1,0,79.7c15.1,0,29.8,0,45.1,0
			C41.5,375.3,26.8,348.9,16.5,319.7z M460.9,399.6c0-13.4,0-26.2,0-39.3c0-12.7,0-25.4,0-38.3c-10.5,28.3-24.8,53.9-44.3,77.5
			C431.6,399.6,445.9,399.6,460.9,399.6z M163.5,469.6c-18-8.9-37-18.2-55.7-27.2c0,8.7,0,17.9,0,27.2
			C127.1,469.6,146.1,469.6,163.5,469.6z M315.2,469.5c17.1,0,36.2,0,55.4,0c0-9.5,0-18.7,0-27.1
			C351.6,451.6,332.6,460.9,315.2,469.5z M33.6,136.7c-5.8,0-11.4,0-17.2,0c0,13.5,0,26.6,0,40.4C22.3,163.2,27.9,150,33.6,136.7z
			 M460.8,136.5c-5.6,0-10.8,0-16.3,0c5.5,12.7,10.8,25,16.3,37.5C460.8,161.8,460.8,149.5,460.8,136.5z M95.9,417.5
			c0-2.6,0-4.3,0-6.1c-2.6,0-4.7,0-8.2,0C91.1,413.9,93.3,415.5,95.9,417.5z M382.2,411c0,2.3,0,4,0,6.4c2.7-2.3,5-4,8.2-6.4
			C386.8,411,384.8,411,382.2,411z"/>
		<path id="XMLID_31_" class="st0" d="M460.8,174c-5.5-12.4-10.8-24.8-16.3-37.5"/>
	</g>
	<g>
		<path id="XMLID_29_" class="st1" d="M439,466.9h-29.3c0,0,0,0.3,0,0c0,0.3,0,0,0,1.3h29.6C439.3,466.9,439.2,467.2,439,466.9z
			 M435.6,465.6h-26c0,0,0-0.1,0,0h26.2C435.7,465.3,435.6,465.6,435.6,465.6z M399.3,466.9c0.8-1.3,1.6-4.6,2.4-7
			C401,462.4,400.2,465.6,399.3,466.9L399.3,466.9z M319.8,450.8c0-0.1,0-0.4,0-0.5c0,0.1,0,0.3,0,0.4V450.8z M317.4,415.4
			c0,8.6,0.5,17.3,0.3,25.9c-0.1,4.6-0.4,9.3-1.4,13.6c-1.5,6.7-5.7,10.5-11.4,10.9c5.7-0.4,10-4.2,11.6-10.9c1-4.4,1.8-9,1.9-13.6
			c0.3-8.6,0.4-17.3,0.4-25.9v-2.1h-1.3v2.1H317.4z M299.2,468c-0.8-0.3-1.6-0.5-2.3-0.9C297.6,467.5,298.5,467.8,299.2,468
			c5.8,1.7,11,0.5,14.7-3.4C310.2,468.6,305.1,469.9,299.2,468z M212.5,468.6c1.3,0,1,0,1.3,0v-53.9h-1.3V468.6z M103.8,468.3v1.3
			h30.1c-0.1-1.3-0.1-1.1-0.3-1.3H103.8z M130.4,465.6c-1.8-4.6-3.4-9.3-5.2-14.1c1.6,4.6,3.3,9.3,4.9,14.1H130.4z M114,420.1
			c2.8,7.8,5.4,15.3,8.2,22.8c-2.7-7.6-5.4-15.4-8.2-23.2c-0.4,0.9-0.8,1.6-1,2.3c-5.3,14.8-10.6,29.5-15.8,44.3
			c-0.3,0.7-0.5,1.2-0.9,1.6c-0.1,0.1-0.1,0.1-0.3,0.3c-0.1,0.1-0.4,0.3-0.6,0.3c-0.4,0.1-0.9,0-1.6-0.3l0,0
			c1.9,0.8,2.7-0.1,3.3-1.9c5.2-14.8,10.5-29.5,15.8-44.1C113.3,421.6,113.6,421.1,114,420.1z M101.3,447.4
			c-2.5,7-4.9,14.2-7.5,20.9l0,0C96.4,461.6,98.9,454.3,101.3,447.4z M69.7,437.4H44.4v-25.5h-2.5v56.6c1.3-0.1,2.5-0.1,2.5-0.1
			v-28.3h25.3v28.2h2.5v-56.3h-2.5V437.4z"/>
		<path id="XMLID_28_" class="st2" d="M421.8,384.8l-366.9,0.3l-39.6,14.4v81.3l39.9,14.4h366.3l39.9-14.4v-81.3L421.8,384.8z
			 M72.3,468.3h-2.5v-28.2H44.4v28.3c0,0-1.3,0.1-2.5,0.1v-56.6h2.5v25.5h25.3v-25.5h2.5V468.3z M133.9,469.6h-30.1v-1.3l0,0v-2.7
			h26.3c-1.6-4.8-3.3-9.4-4.9-14.1c-0.1-0.4-0.3-0.9-0.5-1.3c-0.5-1.5-1-3-1.5-4.4c-0.4-0.9-0.6-1.9-1-2.8
			c-2.7-7.6-5.4-15.2-8.2-22.8c-0.4,0.9-0.8,1.5-1,2.1c-5.3,14.8-10.6,29.4-15.8,44.1c-0.6,1.9-1.4,2.7-3.3,1.9l0,0l0,0l0,0l0,0
			c2.5-6.7,4.9-14,7.5-20.9c4.2-11.5,8.3-23.3,12.5-35.2c6.8,19.1,13.4,37.3,20,56.1h-0.3C133.8,468.6,133.8,468.3,133.9,469.6z
			 M157.3,445.2c0.3,3.4,0.6,6.8,1.4,10.2c1.4,6.2,4.9,10.1,10.4,10.7c3.3,0.4,6.8,0.4,10.1-0.4c2.5-0.5,4.8-2.5,7.6-4.2
			c0.1,0.1,0.5,0.7,1.1,1.2c-1.8,3-4.3,4.6-7.2,5.5c-4.7,1.5-9.5,1.6-14.2,0c-4.6-1.5-7.8-4.8-9.5-10.2c-2.7-8.5-2.7-17.3-1.8-26
			c0.3-2.4,0.8-4.8,1.3-7.2c1.9-7.2,6.2-11.3,12.4-12.3c4.9-0.8,9.9-0.7,14.4,2c1.6,0.9,3,2.4,4.8,3.9c-0.9,0.8-1.4,1.3-2,1.9
			c-4.8-5.9-11-5.9-17.3-5c-5.3,0.8-8.6,4.6-10.1,10.6C157.1,432.3,156.9,438.8,157.3,445.2z M216.3,468.4c-0.4,0-0.6,0-0.9,0
			c-0.1,0-0.3,0-0.4,0c-0.3,0-0.6,0-1.3,0.1l0,0c-0.3,0,0,0-1.3,0v-53.9h1.3v-1.3h2.5V468.4z M241.9,466.9
			c-7.2-8.7-14.5-17.3-21.9-25.9c-0.4-0.5-0.9-1.1-1.4-1.7c2.5-3,4.9-5.8,7.5-8.7c4.4-5.2,8.8-10.3,13.3-15.7c1.4-1.6,2.7-2,4.2-1.6
			c-7.1,8.6-14.2,17.2-21.1,25.5c8.1,9.8,16.1,19.5,24.3,29.4C244.5,468.8,243.1,468.6,241.9,466.9z M320,413L320,413
			c0,12.5,0,24.8,0,37.2l0,0c0,0.1,0,0.4,0,0.5c-0.1,1.3-0.5,2.7-0.9,4c-1,4.2-2.8,7.5-5.2,9.9c-3.7,3.9-8.8,5.1-14.7,3.4
			c-0.8-0.3-1.6-0.5-2.3-0.9c-0.5-0.3-1-0.5-1.4-0.8c-0.3-0.1-0.5-0.3-0.6-0.5c-0.4-0.4-0.9-0.7-1.3-1.1c-0.6-0.7-1.1-1.2-1.6-2
			c-0.1-0.3-0.4-0.5-0.5-0.7l0,0c-0.1-0.3-0.4-0.5-0.5-0.8c-0.1-0.3-0.3-0.5-0.4-0.8c-0.3-0.5-0.5-1.1-0.8-1.7
			c-2-5.2-2.7-10.7-2.8-16.4c-0.1-9.5-0.1-18.9-0.1-28.3v-0.3c0-0.1,0-0.3,0.1-0.3v-0.1c0-0.1,0-0.1,0-0.3c0,0,0,0,0-0.1
			c0-0.1,0-0.4,0-0.8h2.3v3.4c0,9.1-0.1,18.2,0.1,27.4c0.1,4,0.6,8.2,1.5,12.1c1.6,6.7,5.7,10.5,11.4,11c0.4,0,0.8,0,1,0
			c0.5,0,0.9,0,1.3,0c5.7-0.4,10-4.2,11.5-10.9c1-4.4,1.1-9,1.3-13.6c0.3-8.6-0.3-17.3-0.3-25.9v-2.3h1.3v-1.3h1.6
			c0,0.4,0.1,0.7,0.1,0.8C320.2,412.7,320,412.7,320,413l-0.3-0.3v0.3H320z M362.6,468.7c-6.7-18.9-13.3-37.4-20-55.8
			c2.3-0.8,2.3-0.8,3.2,1.6c5.2,14.6,10.5,29.2,15.7,43.7c0.3,0.9,0.6,1.7,1.1,3.1c1.5-4.3,2.9-8.2,4.3-11.9
			c4.2-11.5,8.3-23.1,12.4-34.7c0.6-1.9,1.4-2.7,3.3-1.9C376,431.1,369.4,449.6,362.6,468.7z M439.3,468.3h-29.6c0-1.3,0-1.1,0-1.3
			s0-0.7,0-1.1v-0.3l0,0c0-0.1,0,0,0,0h26c-5.4-16.1-10.7-30.7-16.2-46c-0.5,1.2-0.8,1.6-1,2.4c-5.2,14.6-10.5,29-15.7,43.6
			c-0.6,1.7-1.3,2.4-3.3,1.6v-0.4l0,0c0.8-1.3,1.6-4.3,2.5-6.7c0.8-2.3,1.6-4.6,2.5-6.8c4.9-14,10-28,15-42.4
			c3.3,9.1,6.4,18.4,9.6,27.4c0.5,1.6,1.1,3.1,1.6,4.7c0.6,1.9,1.4,3.8,2,5.6c0.1,0.4,0.4,0.9,0.5,1.3c2,5.8,4.2,11.4,6.2,16.9h-0.3
			C439.2,467.2,439.3,466.9,439.3,468.3z"/>
		<path id="XMLID_27_" class="st1" d="M133.9,468.3h-30.1v-2.7h26.5c-1.8-4.6-3.4-9.3-5.2-14.1c-0.1-0.4-0.3-0.9-0.5-1.3
			c-0.5-1.5-1-3-1.5-4.4c-0.4-0.9-0.6-1.9-1-2.8c-2.7-7.6-5.4-15.4-8.2-23.2c-0.4,0.9-0.8,1.6-1,2.3c-5.3,14.8-10.6,29.5-15.8,44.3
			c-0.3,0.7-0.5,1.2-0.9,1.6c-0.1,0.1-0.1,0.1-0.3,0.3c-0.1,0.1-0.4,0.3-0.6,0.3c-0.4,0.1-0.9,0-1.5-0.3l0,0l0,0
			c2.5-6.7,4.9-14,7.5-20.9c4.2-11.5,8.3-23.3,12.5-35.2C120.7,431.3,127.2,449.5,133.9,468.3z"/>
		<path id="XMLID_26_" class="st1" d="M186.8,461.7c0.1,0.1,0.5,0.7,1.1,1.2c-1.8,3-4.3,4.6-7.2,5.5c-4.7,1.5-9.5,1.6-14.2,0
			c-4.6-1.5-7.8-4.8-9.5-10.2c-2.7-8.5-2.7-17.3-1.8-26c0.3-2.4,0.8-4.8,1.3-7.2c1.9-7.2,6.2-11.3,12.4-12.3c4.9-0.8,9.9-0.7,14.4,2
			c1.6,0.9,3,2.4,4.8,3.9c-0.9,0.8-1.4,1.3-2,1.9c-4.8-5.9-11-5.9-17.3-5c-5.3,0.8-8.6,4.6-10.1,10.6c-1.6,6.2-1.9,12.6-1.4,19.1
			c0.3,3.4,0.6,6.8,1.4,10.2c1.4,6.2,4.9,10.1,10.4,10.7c3.3,0.4,6.8,0.4,10.1-0.4C181.7,465.2,184,463.2,186.8,461.7z"/>
		<path id="XMLID_25_" class="st1" d="M216.3,413.3v55.1c-0.4,0-0.6,0-0.9,0c-0.1,0-0.3,0-0.4,0c-0.3,0-0.6,0-1.3,0.1v-55.3H216.3z"
			/>
		<path id="XMLID_23_" class="st1" d="M246.4,468.3c-2,0.5-3.3,0.4-4.7-1.2c-7.2-8.7-14.5-17.3-21.9-25.9c-0.4-0.5-0.9-1.1-1.4-1.7
			c2.5-3,4.9-5.8,7.5-8.7c4.4-5.2,8.8-10.3,13.3-15.7c1.4-1.6,2.7-2,4.2-1.6c-7.1,8.6-14.2,17.2-21.1,25.5
			C230.4,448.7,238.3,458.4,246.4,468.3z"/>
		<path id="XMLID_18_" class="st1" d="M320,412.7v0.3l0,0c0,12.3-0.1,24.8-0.4,37.2c0,0.1,0.1,0.3,0.1,0.4c-0.1,1.3-0.4,2.7-0.8,4
			c-2.8,11-10.5,16.2-19.8,13.3c-3-0.9-5.3-2.8-7.2-5.4c-0.1-0.3-0.3-0.5-0.5-0.7l0,0c-0.1-0.3-0.3-0.5-0.5-0.8
			c-0.1-0.3-0.3-0.5-0.4-0.8c-0.3-0.5-0.5-1.1-0.8-1.7c-2-5.2-2.7-10.7-2.8-16.4c-0.1-9.5-0.1-18.9-0.1-28.3v-0.3
			c0-0.1,0-0.3,0.1-0.3v-0.1c0,0,0-0.1,0-0.3c0,0,0,0,0-0.1s0-0.4,0-0.8h2.3v3.4c0,9.1-0.1,18.2,0.1,27.4c0.1,4,0.6,8.2,1.5,12.1
			c1.6,6.7,5.7,10.5,11.4,11c0.4,0,0.8,0,1,0c0.5,0,0.9,0,1.3,0c5.7-0.4,10-4.2,11.5-10.9c1-4.4,1.8-9,1.9-13.6
			c0.3-8.6,0.3-17.3,0.3-25.9v-3.5h1.6C319.8,412.3,320,412.6,320,412.7c0,0-0.3,0-0.3,0.1C320.2,412.7,320,412.6,320,412.7z"/>
		<path id="XMLID_14_" class="st1" d="M382.5,412.6c-6.6,18.5-13.1,37-20,55.9c-6.7-18.9-13.3-37.4-20-55.8c2.3-0.8,2.3-0.8,3.2,1.6
			c5.2,14.6,10.5,29.2,15.7,43.7c0.3,0.9,0.6,1.7,1.1,3.1c1.5-4.3,2.9-8.2,4.3-11.9c4.2-11.5,8.3-23.1,12.4-34.7
			C379.9,412.7,380.6,411.9,382.5,412.6z"/>
		<path id="XMLID_12_" class="st1" d="M439.3,466.9h-29.6c0,0,0-0.1,0-0.3c0-0.3,0-0.5,0-0.9v-0.1h26.2c-0.1-0.3-0.1-0.4-0.3-0.7
			c-5.4-15.8-10.7-30.5-16.2-45.7c-0.5,1.2-0.8,1.7-1,2.5c-5.2,14.6-10.5,29.1-15.7,43.7c-0.6,1.7-1.3,2.8-3.3,2l0,0
			c0.8-2.3,1.6-4.6,2.4-7c0.8-2.3,1.6-4.7,2.5-7c4.9-14,10-28.2,15-42.4c3.3,9.1,6.4,18.2,9.6,27.4c0.5,1.6,1.1,3.1,1.6,4.7
			c0.6,1.9,1.4,3.8,2,5.5c0.1,0.4,0.4,0.9,0.5,1.3C435.2,455.8,437.3,461.4,439.3,466.9z"/>
		<path id="XMLID_11_" class="st3" d="M439.3,467.6h-29.6c0-0.4,0-0.7,0-0.9s0-0.5,0-0.9v-0.1c0-0.1,0-0.4,0-0.7h26.2
			c-5.6-16.1-10.9-30.6-16.4-46c-0.5,1.2-0.8,2-1,2.8c-5.2,14.6-10.5,29.2-15.7,43.9c-0.6,1.7-1.3,2-3.3,2l0,0
			c0.8-2.7,1.6-4.7,2.5-7c0.8-2.3,1.6-4.7,2.5-7c4.9-13.8,10-27.9,15-42.1c3.3,9.1,6.4,18.1,9.6,27c0.5,1.6,1.1,3.1,1.6,4.7
			c0.6,1.9,1.4,3.8,2,5.5c0.1,0.4,0.4,0.9,0.5,1.3c2,5.6,3.9,11.1,5.9,16.9C439.2,467.2,439.3,467.3,439.3,467.6z"/>
		<path id="XMLID_10_" class="st3" d="M104.5,466.3h25.9c-0.1-0.3-0.1-0.4-0.3-0.7c-1.6-4.8-3.3-9.4-4.9-14.1
			c-0.1-0.4-0.3-0.9-0.5-1.3c-0.5-1.5-1-3-1.5-4.4c-0.4-0.9-0.6-1.9-1-2.8c-2.7-7.6-5.4-15.2-8.2-22.8c-0.4,0.9-0.8,1.5-1,2.1
			c-5.3,14.8-10.6,29.4-15.8,44.1c-0.6,1.9-1.4,2.7-3.3,1.9l0,0l0,0c6.6-18.5,13.1-36.8,20-55.7c6.7,18.8,13.3,37.2,19.7,55.7
			c0.1,0.3,0.1,0.4,0.3,0.7h-29.4L104.5,466.3L104.5,466.3z"/>
		<path id="XMLID_9_" class="st3" d="M71.6,411.3V469h-2.5v-28.2h-24v27.6c-1.3,0-2.5,0.1-2.5,0.1v-57.3h2.5v25.5h24v-25.5
			L71.6,411.3L71.6,411.3z"/>
		<path id="XMLID_8_" class="st3" d="M320.6,413L320.6,413c0,12.5,0,24.8-1.3,37.2l0,0c0,0.1,0.3,0.4,0.3,0.5
			c-0.1,1.3-0.4,2.7-0.6,4c-1,4.2-2.8,7.5-5.1,9.9c-3.7,3.9-8.8,5.1-14.7,3.4c-0.8-0.3-1.5-0.5-2.3-0.9c-0.5-0.3-0.9-0.5-1.4-0.8
			c-0.3-0.1-0.4-0.3-0.6-0.5c-0.1-0.1-0.3-0.3-0.4-0.4c-0.1-0.1-0.3-0.3-0.4-0.3c-0.1-0.1-0.3-0.3-0.4-0.4l-0.1-0.1l-0.1-0.1
			c-0.5-0.5-0.9-1.1-1.4-1.7c-0.1-0.3-0.3-0.5-0.5-0.7l0,0c-0.1-0.3-0.3-0.5-0.5-0.8c-0.1-0.3-0.3-0.5-0.4-0.8
			c-0.3-0.5-0.5-1.1-0.8-1.7c-2-5.2-2.7-10.7-2.8-16.4c-0.1-9.5,0-18.9,0-28.3c0-0.1,0-0.4,0-0.7v-0.1c0-0.1,0-0.1,0-0.3
			c0,0,0,0,0-0.1c0-0.1,0-0.1,0-0.1h1.6v2.7c0,9.1,0.1,18.2,0.4,27.4c0.1,4,0.8,8.2,1.6,12.1c1.6,6.7,5.8,10.6,11.5,11
			c0.4,0,0.8,0,1,0c0.5,0,0.9,0,1.3,0c5.7-0.4,10-4.2,11.5-10.9c1-4.4,1.4-9,1.5-13.6c0.3-8.6,0-17.3,0-25.9v-2.8h2.3
			c0,0,0.1,0,0.1,0.1c0,0,0,0,0.1,0.1C320.6,412.9,320.6,412.9,320.6,413z"/>
		<path id="XMLID_7_" class="st3" d="M186.8,461.7c0.1,0.1,0.5,0.7,1.1,1.2c-1.8,3-4.3,4.6-7.2,5.5c-4.7,1.5-9.5,1.6-14.2,0
			c-4.6-1.5-7.8-4.8-9.5-10.2c-2.7-8.5-2.7-17.3-1.8-26c0.3-2.4,0.8-4.8,1.3-7.2c1.9-7.2,6.2-11.3,12.4-12.3c4.9-0.8,9.9-0.7,14.4,2
			c1.6,0.9,3,2.4,4.8,3.9c-0.9,0.8-1.4,1.3-2,1.9c-4.8-5.9-11-5.9-17.3-5c-5.3,0.8-8.6,4.6-10.1,10.6c-1.6,6.2-1.9,12.6-1.4,19.1
			c0.3,3.4,0.6,6.8,1.4,10.2c1.4,6.2,4.9,10.1,10.4,10.7c3.3,0.4,6.8,0.4,10.1-0.4C181.7,465.2,184,463.2,186.8,461.7z"/>
		<path id="XMLID_5_" class="st3" d="M382.5,412.6c-6.6,18.5-13.1,37-20,55.9c-6.7-18.9-13.3-37.4-20-55.8c2.3-0.8,2.3-0.8,3.2,1.6
			c5.2,14.6,10.5,29.2,15.7,43.7c0.3,0.9,0.6,1.7,1.1,3.1c1.5-4.3,2.9-8.2,4.3-11.9c4.2-11.5,8.3-23.1,12.4-34.7
			C379.9,412.7,380.6,411.9,382.5,412.6z"/>
		<path id="XMLID_4_" class="st3" d="M246.4,468.3c-2,0.5-3.3,0.4-4.7-1.2c-7.2-8.7-14.5-17.3-21.9-25.9c-0.4-0.5-0.9-1.1-1.4-1.7
			c2.5-3,4.9-5.8,7.5-8.7c4.4-5.2,8.8-10.3,13.3-15.7c1.4-1.6,2.7-2,4.2-1.6c-7.1,8.6-14.2,17.2-21.1,25.5
			C230.4,448.7,238.3,458.4,246.4,468.3z"/>
		<path id="XMLID_3_" class="st3" d="M215.7,414v54.5c0,0-0.1,0-0.3,0c-0.1,0-0.3,0-0.4,0c-0.4,0-0.8,0-1.3,0c-0.3,0-0.4,0-0.6,0
			v-54.6h2.5V414z"/>
	</g>
	<circle id="XMLID_2_" class="st0" cx="266.6" cy="463.6" r="10.1"/>
	<g>
		<rect x="5.1" y="476.8" class="st0" width="10.3" height="47"/>
		
			<rect x="130.2" y="388.5" transform="matrix(6.123234e-17 -1 1 6.123234e-17 -383.297 654.031)" class="st0" width="10.3" height="260.4"/>
	</g>
	<rect x="261.5" y="470.8" class="st0" width="10.3" height="53"/>
</g>
</svg>
